<?xml version="1.0" standalone="no"?>
<!DOCTYPE svg PUBLIC "-//W3C//DTD SVG 1.1//EN"
"http://www.w3.org/Graphics/SVG/1.1/DTD/svg11.dtd">
<svg width="102.614" height="98.8346" viewBox="0 0 2137.8 2059.06" version="1.1"
xmlns="http://www.w3.org/2000/svg"
xmlns:xlink="http://www.w3.org/1999/xlink">
<polyline points="995.409,534.263 993.283,535.023 992.085,535.387 988.227,536.355 987.267,536.547 983.405,537.119 982.587,537.199 978.731,537.389 978.345,537.399 923.225,537.399 922.837,537.389 918.981,537.199 918.163,537.119 914.303,536.547 913.343,536.355 909.485,535.387 908.287,535.023 906.161,534.263" style="stroke:rgb(255,0,0);stroke-width:15.748031;fill:none;stroke-opacity:0.5;stroke-linecap:round;stroke-linejoin:round;;fill:none"/>
<polyline points="995.409,534.263 993.283,535.023 992.085,535.387 988.227,536.355 987.267,536.547 983.405,537.119 982.587,537.199 978.731,537.389 978.345,537.399 923.225,537.399 922.837,537.389 918.981,537.199 918.163,537.119 914.303,536.547 913.343,536.355 909.485,535.387 908.287,535.023 906.161,534.263" style="stroke:rgb(0,0,0);stroke-width:1px;fill:none;stroke-opacity:1;stroke-linecap:round;stroke-linejoin:round;;fill:none"/>
<polyline points="995.409,534.263 993.283,535.023 992.085,535.387 988.227,536.355 987.267,536.547 983.405,537.119 982.587,537.199 978.731,537.389 978.345,537.399 923.225,537.399 922.837,537.389 918.981,537.199 918.163,537.119 914.303,536.547 913.343,536.355 909.485,535.387 908.287,535.023 906.161,534.263" style="stroke:rgb(255,0,0);stroke-width:15.748031;fill:none;stroke-opacity:0.5;stroke-linecap:round;stroke-linejoin:round;;fill:none"/>
<polyline points="995.409,534.263 993.283,535.023 992.085,535.387 988.227,536.355 987.267,536.547 983.405,537.119 982.587,537.199 978.731,537.389 978.345,537.399 923.225,537.399 922.837,537.389 918.981,537.199 918.163,537.119 914.303,536.547 913.343,536.355 909.485,535.387 908.287,535.023 906.161,534.263" style="stroke:rgb(0,0,0);stroke-width:1px;fill:none;stroke-opacity:1;stroke-linecap:round;stroke-linejoin:round;;fill:none"/>
<polyline points="995.409,534.263 993.283,535.023 992.085,535.387 988.227,536.355 987.267,536.547 983.405,537.119 982.587,537.199 978.731,537.389 978.345,537.399 923.225,537.399 922.837,537.389 918.981,537.199 918.163,537.119 914.303,536.547 913.343,536.355 909.485,535.387 908.287,535.023 906.161,534.263" style="stroke:rgb(255,0,0);stroke-width:15.748031;fill:none;stroke-opacity:0.5;stroke-linecap:round;stroke-linejoin:round;;fill:none"/>
<polyline points="995.409,534.263 993.283,535.023 992.085,535.387 988.227,536.355 987.267,536.547 983.405,537.119 982.587,537.199 978.731,537.389 978.345,537.399 923.225,537.399 922.837,537.389 918.981,537.199 918.163,537.119 914.303,536.547 913.343,536.355 909.485,535.387 908.287,535.023 906.161,534.263" style="stroke:rgb(0,0,0);stroke-width:1px;fill:none;stroke-opacity:1;stroke-linecap:round;stroke-linejoin:round;;fill:none"/>
<polyline points="1152.89,534.263 1150.76,535.023 1149.57,535.387 1145.71,536.355 1144.75,536.547 1140.89,537.119 1140.07,537.199 1136.21,537.389 1135.83,537.399 1080.71,537.399 1080.32,537.389 1076.46,537.199 1075.64,537.119 1071.79,536.545 1070.83,536.355 1066.97,535.387 1065.77,535.023 1063.64,534.263" style="stroke:rgb(255,0,0);stroke-width:15.748031;fill:none;stroke-opacity:0.5;stroke-linecap:round;stroke-linejoin:round;;fill:none"/>
<polyline points="1152.89,534.263 1150.76,535.023 1149.57,535.387 1145.71,536.355 1144.75,536.547 1140.89,537.119 1140.07,537.199 1136.21,537.389 1135.83,537.399 1080.71,537.399 1080.32,537.389 1076.46,537.199 1075.64,537.119 1071.79,536.545 1070.83,536.355 1066.97,535.387 1065.77,535.023 1063.64,534.263" style="stroke:rgb(0,0,0);stroke-width:1px;fill:none;stroke-opacity:1;stroke-linecap:round;stroke-linejoin:round;;fill:none"/>
<polyline points="1152.89,534.263 1150.76,535.023 1149.57,535.387 1145.71,536.355 1144.75,536.547 1140.89,537.119 1140.07,537.199 1136.21,537.389 1135.83,537.399 1080.71,537.399 1080.32,537.389 1076.46,537.199 1075.64,537.119 1071.79,536.545 1070.83,536.355 1066.97,535.387 1065.77,535.023 1063.64,534.263" style="stroke:rgb(255,0,0);stroke-width:15.748031;fill:none;stroke-opacity:0.5;stroke-linecap:round;stroke-linejoin:round;;fill:none"/>
<polyline points="1152.89,534.263 1150.76,535.023 1149.57,535.387 1145.71,536.355 1144.75,536.547 1140.89,537.119 1140.07,537.199 1136.21,537.389 1135.83,537.399 1080.71,537.399 1080.32,537.389 1076.46,537.199 1075.64,537.119 1071.79,536.545 1070.83,536.355 1066.97,535.387 1065.77,535.023 1063.64,534.263" style="stroke:rgb(0,0,0);stroke-width:1px;fill:none;stroke-opacity:1;stroke-linecap:round;stroke-linejoin:round;;fill:none"/>
<polyline points="1152.89,534.263 1150.76,535.023 1149.57,535.387 1145.71,536.355 1144.75,536.547 1140.89,537.119 1140.07,537.199 1136.21,537.389 1135.83,537.399 1080.71,537.399 1080.32,537.389 1076.46,537.199 1075.64,537.119 1071.79,536.545 1070.83,536.355 1066.97,535.387 1065.77,535.023 1063.64,534.263" style="stroke:rgb(255,0,0);stroke-width:15.748031;fill:none;stroke-opacity:0.5;stroke-linecap:round;stroke-linejoin:round;;fill:none"/>
<polyline points="1152.89,534.263 1150.76,535.023 1149.57,535.387 1145.71,536.355 1144.75,536.547 1140.89,537.119 1140.07,537.199 1136.21,537.389 1135.83,537.399 1080.71,537.399 1080.32,537.389 1076.46,537.199 1075.64,537.119 1071.79,536.545 1070.83,536.355 1066.97,535.387 1065.77,535.023 1063.64,534.263" style="stroke:rgb(0,0,0);stroke-width:1px;fill:none;stroke-opacity:1;stroke-linecap:round;stroke-linejoin:round;;fill:none"/>
<polyline points="1063.63,534.261 1065.77,535.023 1066.97,535.387 1070.83,536.355 1071.79,536.545 1075.64,537.119 1076.46,537.199 1080.32,537.389 1080.71,537.399 1135.83,537.399 1136.21,537.389 1140.07,537.199 1140.89,537.119 1144.75,536.547 1145.71,536.355 1149.57,535.387 1150.76,535.023 1152.9,534.26" style="stroke:rgb(255,0,0);stroke-width:15.748031;fill:none;stroke-opacity:0.5;stroke-linecap:round;stroke-linejoin:round;;fill:none"/>
<polyline points="1063.63,534.261 1065.77,535.023 1066.97,535.387 1070.83,536.355 1071.79,536.545 1075.64,537.119 1076.46,537.199 1080.32,537.389 1080.71,537.399 1135.83,537.399 1136.21,537.389 1140.07,537.199 1140.89,537.119 1144.75,536.547 1145.71,536.355 1149.57,535.387 1150.76,535.023 1152.9,534.26" style="stroke:rgb(0,0,0);stroke-width:1px;fill:none;stroke-opacity:1;stroke-linecap:round;stroke-linejoin:round;;fill:none"/>
<polyline points="1063.63,534.261 1065.77,535.023 1066.97,535.387 1070.83,536.355 1071.79,536.545 1075.64,537.119 1076.46,537.199 1080.32,537.389 1080.71,537.399 1135.83,537.399 1136.21,537.389 1140.07,537.199 1140.89,537.119 1144.75,536.547 1145.71,536.355 1149.57,535.387 1150.76,535.023 1152.9,534.26" style="stroke:rgb(255,0,0);stroke-width:15.748031;fill:none;stroke-opacity:0.5;stroke-linecap:round;stroke-linejoin:round;;fill:none"/>
<polyline points="1063.63,534.261 1065.77,535.023 1066.97,535.387 1070.83,536.355 1071.79,536.545 1075.64,537.119 1076.46,537.199 1080.32,537.389 1080.71,537.399 1135.83,537.399 1136.21,537.389 1140.07,537.199 1140.89,537.119 1144.75,536.547 1145.71,536.355 1149.57,535.387 1150.76,535.023 1152.9,534.26" style="stroke:rgb(0,0,0);stroke-width:1px;fill:none;stroke-opacity:1;stroke-linecap:round;stroke-linejoin:round;;fill:none"/>
<polyline points="1063.63,534.261 1065.77,535.023 1066.97,535.387 1070.83,536.355 1071.79,536.545 1075.64,537.119 1076.46,537.199 1080.32,537.389 1080.71,537.399 1135.83,537.399 1136.21,537.389 1140.07,537.199 1140.89,537.119 1144.75,536.547 1145.71,536.355 1149.57,535.387 1150.76,535.023 1152.9,534.26" style="stroke:rgb(255,0,0);stroke-width:15.748031;fill:none;stroke-opacity:0.5;stroke-linecap:round;stroke-linejoin:round;;fill:none"/>
<polyline points="1063.63,534.261 1065.77,535.023 1066.97,535.387 1070.83,536.355 1071.79,536.545 1075.64,537.119 1076.46,537.199 1080.32,537.389 1080.71,537.399 1135.83,537.399 1136.21,537.389 1140.07,537.199 1140.89,537.119 1144.75,536.547 1145.71,536.355 1149.57,535.387 1150.76,535.023 1152.9,534.26" style="stroke:rgb(0,0,0);stroke-width:1px;fill:none;stroke-opacity:1;stroke-linecap:round;stroke-linejoin:round;;fill:none"/>
<polyline points="906.155,534.261 908.287,535.023 909.485,535.387 913.343,536.355 914.303,536.547 918.163,537.119 918.981,537.199 922.837,537.389 923.225,537.399 978.345,537.399 978.731,537.389 982.587,537.199 983.405,537.119 987.267,536.547 988.227,536.355 992.085,535.387 993.283,535.023 995.419,534.26" style="stroke:rgb(255,0,0);stroke-width:15.748031;fill:none;stroke-opacity:0.5;stroke-linecap:round;stroke-linejoin:round;;fill:none"/>
<polyline points="906.155,534.261 908.287,535.023 909.485,535.387 913.343,536.355 914.303,536.547 918.163,537.119 918.981,537.199 922.837,537.389 923.225,537.399 978.345,537.399 978.731,537.389 982.587,537.199 983.405,537.119 987.267,536.547 988.227,536.355 992.085,535.387 993.283,535.023 995.419,534.26" style="stroke:rgb(0,0,0);stroke-width:1px;fill:none;stroke-opacity:1;stroke-linecap:round;stroke-linejoin:round;;fill:none"/>
<polyline points="906.155,534.261 908.287,535.023 909.485,535.387 913.343,536.355 914.303,536.547 918.163,537.119 918.981,537.199 922.837,537.389 923.225,537.399 978.345,537.399 978.731,537.389 982.587,537.199 983.405,537.119 987.267,536.547 988.227,536.355 992.085,535.387 993.283,535.023 995.419,534.26" style="stroke:rgb(255,0,0);stroke-width:15.748031;fill:none;stroke-opacity:0.5;stroke-linecap:round;stroke-linejoin:round;;fill:none"/>
<polyline points="906.155,534.261 908.287,535.023 909.485,535.387 913.343,536.355 914.303,536.547 918.163,537.119 918.981,537.199 922.837,537.389 923.225,537.399 978.345,537.399 978.731,537.389 982.587,537.199 983.405,537.119 987.267,536.547 988.227,536.355 992.085,535.387 993.283,535.023 995.419,534.26" style="stroke:rgb(0,0,0);stroke-width:1px;fill:none;stroke-opacity:1;stroke-linecap:round;stroke-linejoin:round;;fill:none"/>
<polyline points="906.155,534.261 908.287,535.023 909.485,535.387 913.343,536.355 914.303,536.547 918.163,537.119 918.981,537.199 922.837,537.389 923.225,537.399 978.345,537.399 978.731,537.389 982.587,537.199 983.405,537.119 987.267,536.547 988.227,536.355 992.085,535.387 993.283,535.023 995.419,534.26" style="stroke:rgb(255,0,0);stroke-width:15.748031;fill:none;stroke-opacity:0.5;stroke-linecap:round;stroke-linejoin:round;;fill:none"/>
<polyline points="906.155,534.261 908.287,535.023 909.485,535.387 913.343,536.355 914.303,536.547 918.163,537.119 918.981,537.199 922.837,537.389 923.225,537.399 978.345,537.399 978.731,537.389 982.587,537.199 983.405,537.119 987.267,536.547 988.227,536.355 992.085,535.387 993.283,535.023 995.419,534.26" style="stroke:rgb(0,0,0);stroke-width:1px;fill:none;stroke-opacity:1;stroke-linecap:round;stroke-linejoin:round;;fill:none"/>
</svg>
