<?xml version="1.0" standalone="no"?>
<!DOCTYPE svg PUBLIC "-//W3C//DTD SVG 1.1//EN"
"http://www.w3.org/Graphics/SVG/1.1/DTD/svg11.dtd">
<svg width="102.614" height="98.8346" viewBox="0 0 2137.8 2059.06" version="1.1"
xmlns="http://www.w3.org/2000/svg"
xmlns:xlink="http://www.w3.org/1999/xlink">
<g fill-rule="evenodd"><path d="M 78.7398,1974.41 L 78.7398,84.6453 L 79.1893,82.3854 L 80.4695,80.4695 L 82.3854,79.1893 L 84.6453,78.7398 L 2053.15,78.7398 L 2055.41,79.1893 L 2057.33,80.4695 L 2058.61,82.3854 L 2059.05,84.6453 L 2059.05,1974.41 L 2058.61,1976.67 L 2057.33,1978.59 L 2055.41,1979.87 L 2053.15,1980.31 L 84.6453,1980.31 L 82.3854,1979.87 L 80.4695,1978.59 L 79.1893,1976.67 L 78.7398,1974.41M 90.5508,1968.5 L 2047.24,1968.5 L 2047.24,90.5508 L 90.5508,90.5508 L 90.5508,1968.5 z " style="fill-opacity:1.000000;fill:rgb(103,198,105);stroke:rgb(0,0,0);stroke-width:2"/></g>
<g fill-rule="evenodd"><path d="M 131.89,1915.35 L 131.89,1828.74 L 171.259,1828.74 L 171.259,1781.5 L 131.89,1781.5 L 131.89,1694.88 L 171.259,1694.88 L 171.259,1647.64 L 131.89,1647.64 L 131.89,1561.02 L 198.257,1561.02 L 340.407,1418.87 L 340.407,1183.49 L 182.79,1025.87 L 177.894,1019.9 L 174.256,1013.1 L 172.016,1005.71 L 171.259,998.031 L 171.259,891.732 L 131.89,891.732 L 131.89,805.118 L 171.259,805.118 L 171.259,757.874 L 131.89,757.874 L 131.89,671.26 L 171.259,671.26 L 171.259,624.016 L 131.89,624.016 L 131.89,537.402 L 198.257,537.402 L 442.632,293.026 L 448.598,288.13 L 455.405,284.492 L 462.791,282.252 L 470.471,281.495 L 479.597,281.495 L 481.123,278.851 L 486.906,272.429 L 493.898,267.349 L 501.793,263.834 L 510.246,262.037 L 518.888,262.037 L 527.341,263.834 L 535.236,267.349 L 542.228,272.429 L 548.011,278.851 L 552.332,286.336 L 555.002,294.555 L 555.906,303.15 L 555.906,338.583 L 555.002,347.177 L 552.332,355.397 L 548.011,362.881 L 542.228,369.303 L 535.236,374.383 L 527.341,377.898 L 518.888,379.695 L 510.246,379.695 L 501.793,377.898 L 493.898,374.383 L 486.906,369.303 L 482.549,364.465 L 289.37,557.644 L 289.37,624.016 L 249.999,624.016 L 249.999,671.26 L 289.37,671.26 L 289.37,757.874 L 249.999,757.874 L 249.999,805.118 L 289.37,805.118 L 289.37,891.732 L 249.999,891.732 L 249.999,981.724 L 407.616,1139.34 L 412.512,1145.31 L 416.151,1152.11 L 418.391,1159.5 L 419.147,1167.18 L 419.147,1435.18 L 418.391,1442.86 L 416.151,1450.25 L 412.512,1457.05 L 407.616,1463.02 L 289.37,1581.27 L 289.37,1647.64 L 249.999,1647.64 L 249.999,1694.88 L 289.37,1694.88 L 289.37,1781.5 L 249.999,1781.5 L 249.999,1828.74 L 289.37,1828.74 L 289.37,1915.35 L 131.89,1915.35 z " style="fill-opacity:1.000000;fill:rgb(115,81,255);stroke:rgb(0,0,0);stroke-width:2"/></g>
<g fill-rule="evenodd"><path d="M 161.425,1226.2 L 163.18,1209.6 L 168.393,1193.55 L 176.831,1178.94 L 188.12,1166.4 L 201.771,1156.48 L 217.185,1149.62 L 233.689,1146.11 L 250.355,1146.1 L 267.066,1149.62 L 282.296,1156.39 L 296.276,1166.54 L 307.42,1178.94 L 315.856,1193.55 L 321.071,1209.6 L 322.834,1226.38 L 321.071,1243.16 L 315.856,1259.2 L 307.42,1273.82 L 296.13,1286.35 L 282.48,1296.27 L 267.066,1303.14 L 250.561,1306.64 L 233.895,1306.65 L 216.993,1303.06 L 201.771,1296.27 L 187.974,1286.21 L 176.831,1273.82 L 168.393,1259.2 L 163.18,1243.16 L 161.425,1226.2M 165.365,1226.38 L 167.041,1242.34 L 172,1257.6 L 180.025,1271.5 L 190.762,1283.42 L 203.745,1292.85 L 218.405,1299.38 L 234.102,1302.72 L 250.148,1302.72 L 265.846,1299.38 L 280.506,1292.85 L 293.489,1283.42 L 304.226,1271.5 L 312.249,1257.6 L 317.209,1242.34 L 318.886,1226.38 L 317.209,1210.42 L 312.249,1195.16 L 304.226,1181.26 L 293.489,1169.33 L 280.506,1159.9 L 265.846,1153.37 L 250.148,1150.04 L 234.102,1150.04 L 218.405,1153.37 L 203.745,1159.9 L 190.762,1169.33 L 180.025,1181.26 L 172,1195.16 L 167.041,1210.42 L 165.365,1226.38 z " style="fill-opacity:1.000000;fill:rgb(74,236,41);stroke:rgb(0,0,0);stroke-width:2"/></g>
<g fill-rule="evenodd"><path d="M 161.425,241.945 L 163.18,225.344 L 168.393,209.299 L 176.831,194.686 L 188.12,182.146 L 201.771,172.228 L 217.185,165.367 L 233.689,161.858 L 250.355,161.847 L 267.066,165.367 L 282.296,172.135 L 296.276,182.292 L 307.42,194.686 L 315.856,209.299 L 321.071,225.344 L 322.834,242.125 L 321.071,258.905 L 315.856,274.952 L 307.42,289.564 L 296.13,302.104 L 282.48,312.02 L 267.066,318.883 L 250.561,322.391 L 233.895,322.402 L 216.993,318.81 L 201.771,312.02 L 187.974,301.958 L 176.831,289.564 L 168.393,274.952 L 163.18,258.904 L 161.425,241.945M 165.365,242.125 L 167.041,258.084 L 172,273.346 L 180.025,287.244 L 190.762,299.17 L 203.745,308.601 L 218.405,315.129 L 234.102,318.465 L 250.148,318.465 L 265.846,315.129 L 280.506,308.601 L 293.489,299.17 L 304.226,287.244 L 312.249,273.346 L 317.209,258.084 L 318.886,242.125 L 317.209,226.165 L 312.249,210.904 L 304.226,197.007 L 293.489,185.08 L 280.506,175.648 L 265.846,169.122 L 250.148,165.784 L 234.102,165.784 L 218.405,169.122 L 203.745,175.648 L 190.762,185.08 L 180.025,197.007 L 172,210.904 L 167.041,226.165 L 165.365,242.125 z " style="fill-opacity:1.000000;fill:rgb(205,186,171);stroke:rgb(0,0,0);stroke-width:2"/></g>
<g fill-rule="evenodd"><path d="M 509.843,1915.35 L 509.843,1828.74 L 667.323,1828.74 L 667.323,1832.68 L 1470.47,1832.68 L 1470.47,1828.74 L 1627.95,1828.74 L 1627.95,1915.35 L 1470.47,1915.35 L 1470.47,1911.42 L 667.323,1911.42 L 667.323,1915.35 L 509.843,1915.35 z " style="fill-opacity:1.000000;fill:rgb(242,251,227);stroke:rgb(0,0,0);stroke-width:2"/></g>
<g fill-rule="evenodd"><path d="M 509.843,1781.5 L 509.843,1694.88 L 667.323,1694.88 L 667.323,1698.82 L 1470.47,1698.82 L 1470.47,1694.88 L 1627.95,1694.88 L 1627.95,1781.5 L 1470.47,1781.5 L 1470.47,1777.56 L 667.323,1777.56 L 667.323,1781.5 L 509.843,1781.5 z " style="fill-opacity:1.000000;fill:rgb(70,124,194);stroke:rgb(0,0,0);stroke-width:2"/></g>
<g fill-rule="evenodd"><path d="M 509.843,1647.64 L 509.843,1561.02 L 667.323,1561.02 L 667.323,1598.43 L 1470.47,1598.43 L 1470.47,1561.02 L 1627.95,1561.02 L 1627.95,1647.64 L 1561.58,1647.64 L 1543.58,1665.63 L 1537.62,1670.53 L 1530.81,1674.17 L 1523.43,1676.41 L 1515.75,1677.17 L 622.047,1677.17 L 614.367,1676.41 L 606.981,1674.17 L 600.174,1670.53 L 594.208,1665.63 L 576.212,1647.64 L 509.843,1647.64 z " style="fill-opacity:1.000000;fill:rgb(84,248,27);stroke:rgb(0,0,0);stroke-width:2"/></g>
<g fill-rule="evenodd"><path d="M 509.843,891.732 L 509.843,805.118 L 576.21,805.118 L 594.209,787.12 L 600.175,782.224 L 606.982,778.586 L 614.367,776.346 L 622.047,775.589 L 1515.75,775.589 L 1523.43,776.346 L 1530.81,778.586 L 1537.62,782.224 L 1543.58,787.12 L 1561.58,805.118 L 1627.95,805.118 L 1627.95,891.732 L 1470.47,891.732 L 1470.47,854.33 L 667.323,854.33 L 667.323,891.732 L 509.843,891.732 z " style="fill-opacity:1.000000;fill:rgb(232,231,141);stroke:rgb(0,0,0);stroke-width:2"/></g>
<g fill-rule="evenodd"><path d="M 509.843,757.874 L 509.843,671.26 L 667.323,671.26 L 667.323,675.195 L 1470.47,675.195 L 1470.47,671.26 L 1627.95,671.26 L 1627.95,757.874 L 1470.47,757.874 L 1470.47,753.935 L 667.323,753.935 L 667.323,757.874 L 509.843,757.874 z " style="fill-opacity:1.000000;fill:rgb(118,90,46);stroke:rgb(0,0,0);stroke-width:2"/></g>
<g fill-rule="evenodd"><path d="M 509.843,624.016 L 509.843,537.402 L 667.323,537.402 L 667.323,541.337 L 1470.47,541.337 L 1470.47,537.402 L 1627.95,537.402 L 1627.95,624.016 L 1470.47,624.016 L 1470.47,620.077 L 667.323,620.077 L 667.323,624.016 L 509.843,624.016 z " style="fill-opacity:1.000000;fill:rgb(99,51,159);stroke:rgb(0,0,0);stroke-width:2"/></g>
<g fill-rule="evenodd"><path d="M 573.228,338.583 L 573.228,303.15 L 574.132,294.555 L 576.802,286.336 L 581.123,278.851 L 586.906,272.429 L 593.898,267.349 L 601.793,263.834 L 610.246,262.037 L 618.888,262.037 L 627.341,263.834 L 635.236,267.349 L 642.228,272.429 L 648.011,278.851 L 652.332,286.336 L 655.002,294.555 L 655.906,303.15 L 655.906,338.583 L 655.002,347.177 L 653.935,350.461 L 653.935,399.605 L 903.951,399.605 L 905.041,396.009 L 906.859,392.605 L 909.307,389.623 L 912.291,387.175 L 915.693,385.355 L 919.387,384.235 L 923.227,383.857 L 978.345,383.857 L 982.185,384.235 L 985.879,385.355 L 989.281,387.175 L 992.265,389.623 L 994.713,392.605 L 996.531,396.009 L 997.651,399.701 L 998.031,403.541 L 998.031,474.409 L 997.651,478.249 L 996.531,481.941 L 994.713,485.345 L 992.265,488.327 L 989.281,490.775 L 985.879,492.595 L 982.185,493.715 L 978.345,494.093 L 923.227,494.093 L 919.387,493.715 L 915.693,492.595 L 912.291,490.775 L 909.307,488.327 L 906.859,485.345 L 905.041,481.941 L 903.95,478.345 L 633.069,478.345 L 625.389,477.589 L 618.003,475.349 L 611.196,471.71 L 605.23,466.814 L 586.726,448.31 L 581.83,442.344 L 578.192,435.538 L 575.952,428.152 L 575.195,420.471 L 575.195,350.451 L 574.132,347.177 L 573.228,338.583 z " style="fill-opacity:1.000000;fill:rgb(201,154,102);stroke:rgb(0,0,0);stroke-width:2"/></g>
<g fill-rule="evenodd"><path d="M 673.228,379.921 L 673.228,261.811 L 755.906,261.811 L 755.906,281.495 L 967.55,281.495 L 996.739,252.306 L 995.669,242.126 L 997.132,228.211 L 1001.46,214.903 L 1008.45,202.786 L 1017.81,192.388 L 1029.13,184.164 L 1041.92,178.473 L 1055.6,175.563 L 1069.59,175.563 L 1083.28,178.473 L 1096.06,184.164 L 1107.38,192.388 L 1116.75,202.786 L 1123.74,214.903 L 1128.06,228.211 L 1129.53,242.126 L 1128.06,256.041 L 1123.74,269.349 L 1116.75,281.466 L 1107.38,291.864 L 1096.06,300.088 L 1083.28,305.779 L 1069.59,308.688 L 1055.6,308.688 L 1052.39,308.006 L 1011.7,348.704 L 1005.73,353.6 L 998.924,357.239 L 991.538,359.479 L 983.857,360.235 L 755.906,360.235 L 755.906,379.921 L 673.228,379.921 z " style="fill-opacity:1.000000;fill:rgb(50,13,183);stroke:rgb(0,0,0);stroke-width:2"/></g>
<g fill-rule="evenodd"><path d="M 712.597,1580.71 L 712.597,872.045 L 713.173,870.653 L 714.565,870.077 L 1423.23,870.077 L 1424.62,870.653 L 1425.2,872.045 L 1425.2,1580.71 L 1424.62,1582.1 L 1423.23,1582.68 L 714.565,1582.68 L 713.173,1582.1 L 712.597,1580.71M 716.534,1578.74 L 1421.26,1578.74 L 1421.26,874.014 L 716.534,874.014 L 716.534,1578.74 z " style="fill-opacity:1.000000;fill:rgb(49,88,163);stroke:rgb(0,0,0);stroke-width:2"/></g>
<g fill-rule="evenodd"><path d="M 1061.02,474.409 L 1061.02,403.541 L 1061.4,399.701 L 1062.52,396.009 L 1064.34,392.605 L 1066.79,389.623 L 1069.77,387.175 L 1073.18,385.355 L 1076.87,384.235 L 1080.71,383.857 L 1107.71,383.857 L 1209.23,282.333 L 1208.45,281.466 L 1201.46,269.349 L 1197.13,256.041 L 1195.67,242.126 L 1197.13,228.211 L 1201.46,214.903 L 1208.45,202.786 L 1217.81,192.388 L 1229.13,184.164 L 1241.92,178.473 L 1255.6,175.563 L 1269.59,175.563 L 1283.28,178.473 L 1296.06,184.164 L 1307.38,192.388 L 1316.75,202.786 L 1323.74,214.903 L 1328.06,228.211 L 1329.53,242.126 L 1328.06,256.041 L 1323.74,269.349 L 1316.75,281.466 L 1307.38,291.864 L 1299.65,297.485 L 1298.97,299.712 L 1295.33,306.518 L 1290.44,312.484 L 1155.51,447.409 L 1155.51,474.409 L 1155.13,478.249 L 1154.01,481.941 L 1152.19,485.345 L 1149.75,488.327 L 1146.76,490.775 L 1143.36,492.595 L 1139.67,493.715 L 1135.83,494.093 L 1080.71,494.093 L 1076.87,493.715 L 1073.18,492.595 L 1069.77,490.775 L 1066.79,488.327 L 1064.34,485.345 L 1062.52,481.941 L 1061.4,478.249 L 1061.02,474.409 z " style="fill-opacity:1.000000;fill:rgb(90,37,93);stroke:rgb(0,0,0);stroke-width:2"/></g>
<g fill-rule="evenodd"><path d="M 1395.67,309.055 L 1395.67,175.197 L 1529.53,175.197 L 1529.53,202.755 L 1588.58,202.755 L 1596.26,203.512 L 1603.65,205.752 L 1610.45,209.39 L 1616.42,214.286 L 1939.54,537.402 L 2005.91,537.402 L 2005.91,624.016 L 1966.54,624.016 L 1966.54,671.26 L 2005.91,671.26 L 2005.91,757.874 L 1966.54,757.874 L 1966.54,805.118 L 2005.91,805.118 L 2005.91,891.732 L 1966.54,891.732 L 1966.54,1001.54 L 1965.78,1009.22 L 1963.54,1016.61 L 1959.9,1023.42 L 1955,1029.38 L 1797.04,1187.35 L 1797.04,1418.52 L 1939.54,1561.02 L 2005.91,1561.02 L 2005.91,1647.64 L 1966.54,1647.64 L 1966.54,1694.88 L 2005.91,1694.88 L 2005.91,1781.5 L 1966.54,1781.5 L 1966.54,1828.74 L 2005.91,1828.74 L 2005.91,1915.35 L 1848.43,1915.35 L 1848.43,1828.74 L 1887.8,1828.74 L 1887.8,1781.5 L 1848.43,1781.5 L 1848.43,1694.88 L 1887.8,1694.88 L 1887.8,1647.64 L 1848.43,1647.64 L 1848.43,1581.27 L 1729.83,1462.67 L 1724.93,1456.7 L 1721.29,1449.9 L 1719.05,1442.51 L 1718.3,1434.83 L 1718.3,1171.04 L 1719.05,1163.36 L 1721.29,1155.98 L 1724.93,1149.17 L 1729.83,1143.2 L 1887.8,985.236 L 1887.8,891.732 L 1848.43,891.732 L 1848.43,805.118 L 1887.8,805.118 L 1887.8,757.874 L 1848.43,757.874 L 1848.43,671.26 L 1887.8,671.26 L 1887.8,624.016 L 1848.43,624.016 L 1848.43,557.645 L 1572.27,281.495 L 1529.53,281.495 L 1529.53,309.055 L 1395.67,309.055 z " style="fill-opacity:1.000000;fill:rgb(5,23,88);stroke:rgb(0,0,0);stroke-width:2"/></g>
<g fill-rule="evenodd"><path d="M 1814.97,1226.2 L 1816.72,1209.6 L 1821.94,1193.55 L 1830.37,1178.94 L 1841.66,1166.4 L 1855.31,1156.48 L 1870.73,1149.62 L 1887.23,1146.11 L 1903.9,1146.1 L 1920.61,1149.62 L 1935.84,1156.39 L 1949.82,1166.54 L 1960.96,1178.94 L 1969.4,1193.55 L 1974.61,1209.6 L 1976.38,1226.38 L 1974.61,1243.16 L 1969.4,1259.2 L 1960.96,1273.82 L 1949.67,1286.35 L 1936.02,1296.27 L 1920.61,1303.14 L 1904.11,1306.64 L 1887.44,1306.65 L 1870.53,1303.06 L 1855.31,1296.27 L 1841.52,1286.21 L 1830.37,1273.82 L 1821.94,1259.2 L 1816.72,1243.16 L 1814.97,1226.2M 1818.91,1226.38 L 1820.59,1242.34 L 1825.54,1257.6 L 1833.57,1271.5 L 1844.31,1283.42 L 1857.29,1292.85 L 1871.95,1299.38 L 1887.64,1302.72 L 1903.69,1302.72 L 1919.39,1299.38 L 1934.05,1292.85 L 1947.03,1283.42 L 1957.77,1271.5 L 1965.79,1257.6 L 1970.75,1242.34 L 1972.43,1226.38 L 1970.75,1210.42 L 1965.79,1195.16 L 1957.77,1181.26 L 1947.03,1169.33 L 1934.05,1159.9 L 1919.39,1153.37 L 1903.69,1150.04 L 1887.64,1150.04 L 1871.95,1153.37 L 1857.29,1159.9 L 1844.31,1169.33 L 1833.57,1181.26 L 1825.54,1195.16 L 1820.59,1210.42 L 1818.91,1226.38 z " style="fill-opacity:1.000000;fill:rgb(233,94,212);stroke:rgb(0,0,0);stroke-width:2"/></g>
<g fill-rule="evenodd"><path d="M 1814.97,241.945 L 1816.72,225.344 L 1821.94,209.299 L 1830.37,194.686 L 1841.66,182.146 L 1855.31,172.229 L 1870.73,165.367 L 1887.23,161.858 L 1903.9,161.847 L 1920.61,165.367 L 1935.84,172.135 L 1949.82,182.292 L 1960.96,194.686 L 1969.4,209.299 L 1974.61,225.344 L 1976.38,242.125 L 1974.61,258.905 L 1969.4,274.952 L 1960.96,289.564 L 1949.67,302.104 L 1936.02,312.02 L 1920.61,318.883 L 1904.11,322.391 L 1887.44,322.402 L 1870.53,318.81 L 1855.31,312.02 L 1841.52,301.959 L 1830.37,289.564 L 1821.94,274.952 L 1816.72,258.905 L 1814.97,241.945M 1818.91,242.125 L 1820.59,258.084 L 1825.54,273.346 L 1833.57,287.244 L 1844.31,299.17 L 1857.29,308.601 L 1871.95,315.129 L 1887.64,318.465 L 1903.69,318.465 L 1919.39,315.129 L 1934.05,308.601 L 1947.03,299.17 L 1957.77,287.244 L 1965.79,273.346 L 1970.75,258.084 L 1972.43,242.125 L 1970.75,226.165 L 1965.79,210.904 L 1957.77,197.007 L 1947.03,185.08 L 1934.05,175.647 L 1919.39,169.122 L 1903.69,165.784 L 1887.64,165.784 L 1871.95,169.122 L 1857.29,175.647 L 1844.31,185.08 L 1833.57,197.007 L 1825.54,210.904 L 1820.59,226.165 L 1818.91,242.125 z " style="fill-opacity:1.000000;fill:rgb(171,178,205);stroke:rgb(0,0,0);stroke-width:2"/></g>
</svg>
