<?xml version="1.0" standalone="no"?>
<!DOCTYPE svg PUBLIC "-//W3C//DTD SVG 1.1//EN"
"http://www.w3.org/Graphics/SVG/1.1/DTD/svg11.dtd">
<svg width="102.614" height="98.8346" viewBox="0 0 2137.8 2059.06" version="1.1"
xmlns="http://www.w3.org/2000/svg"
xmlns:xlink="http://www.w3.org/1999/xlink">
<g fill-rule="evenodd"><path d="M 84.6453,1974.41 L 84.6453,84.6453 L 2053.15,84.6453 L 2053.15,1974.41 L 84.6453,1974.41M 90.5508,1968.5 L 2047.24,1968.5 L 2047.24,90.5508 L 90.5508,90.5508 L 90.5508,1968.5 z " style="fill-opacity:1.000000;fill:rgb(103,198,105);stroke:rgb(0,0,0);stroke-width:2"/></g>
<g fill-rule="evenodd"><path d="M 161.425,1226.2 L 163.18,1209.6 L 168.393,1193.55 L 176.831,1178.94 L 188.12,1166.4 L 201.771,1156.48 L 217.185,1149.62 L 233.689,1146.11 L 250.355,1146.1 L 267.066,1149.62 L 282.296,1156.39 L 296.276,1166.54 L 307.42,1178.94 L 315.856,1193.55 L 321.071,1209.6 L 322.834,1226.38 L 321.071,1243.16 L 315.856,1259.2 L 307.42,1273.82 L 296.13,1286.35 L 282.48,1296.27 L 267.066,1303.14 L 250.561,1306.64 L 233.895,1306.65 L 216.993,1303.06 L 201.771,1296.27 L 187.974,1286.21 L 176.831,1273.82 L 168.393,1259.2 L 163.18,1243.16 L 161.425,1226.2M 163.385,1226.38 L 165.105,1242.75 L 170.191,1258.4 L 178.423,1272.66 L 189.437,1284.89 L 202.755,1294.57 L 217.793,1301.26 L 233.895,1304.69 L 250.355,1304.69 L 266.457,1301.26 L 281.495,1294.57 L 294.813,1284.89 L 305.827,1272.66 L 314.057,1258.4 L 319.145,1242.75 L 320.865,1226.38 L 319.145,1210.01 L 314.057,1194.35 L 305.827,1180.1 L 294.813,1167.86 L 281.495,1158.19 L 266.457,1151.49 L 250.355,1148.07 L 233.895,1148.07 L 217.793,1151.49 L 202.755,1158.19 L 189.437,1167.86 L 178.423,1180.1 L 170.191,1194.35 L 165.105,1210.01 L 163.385,1226.38 z " style="fill-opacity:1.000000;fill:rgb(115,81,255);stroke:rgb(0,0,0);stroke-width:2"/></g>
<g fill-rule="evenodd"><path d="M 161.425,241.945 L 163.18,225.344 L 168.393,209.299 L 176.831,194.686 L 188.12,182.146 L 201.771,172.228 L 217.185,165.367 L 233.689,161.858 L 250.355,161.847 L 267.066,165.367 L 282.296,172.135 L 296.276,182.292 L 307.42,194.686 L 315.856,209.299 L 321.071,225.344 L 322.834,242.125 L 321.071,258.905 L 315.856,274.952 L 307.42,289.564 L 296.13,302.104 L 282.48,312.02 L 267.066,318.883 L 250.561,322.391 L 233.895,322.402 L 216.993,318.81 L 201.771,312.02 L 187.974,301.958 L 176.831,289.564 L 168.393,274.952 L 163.18,258.904 L 161.425,241.945M 163.385,242.125 L 165.105,258.495 L 170.191,274.151 L 178.423,288.407 L 189.437,300.641 L 202.755,310.315 L 217.793,317.011 L 233.895,320.433 L 250.355,320.433 L 266.457,317.011 L 281.495,310.315 L 294.813,300.641 L 305.827,288.407 L 314.057,274.151 L 319.145,258.495 L 320.865,242.125 L 319.145,225.753 L 314.057,210.099 L 305.827,195.843 L 294.813,183.609 L 281.495,173.933 L 266.457,167.239 L 250.355,163.815 L 233.895,163.815 L 217.793,167.239 L 202.755,173.933 L 189.437,183.609 L 178.423,195.843 L 170.191,210.099 L 165.105,225.753 L 163.385,242.125 z " style="fill-opacity:1.000000;fill:rgb(74,236,41);stroke:rgb(0,0,0);stroke-width:2"/></g>
<g fill-rule="evenodd"><path d="M 473.228,338.583 L 473.228,303.15 L 474.132,294.555 L 476.802,286.336 L 481.123,278.851 L 486.906,272.429 L 493.898,267.349 L 501.793,263.834 L 510.246,262.037 L 518.888,262.037 L 527.341,263.834 L 535.236,267.349 L 542.228,272.429 L 548.011,278.851 L 552.332,286.336 L 555.002,294.555 L 555.906,303.15 L 555.906,338.583 L 555.002,347.177 L 552.332,355.397 L 548.011,362.881 L 542.228,369.303 L 535.236,374.383 L 527.341,377.898 L 518.888,379.695 L 510.246,379.695 L 501.793,377.898 L 493.898,374.383 L 486.906,369.303 L 481.123,362.881 L 476.802,355.397 L 474.132,347.177 L 473.228,338.583 z " style="fill-opacity:1.000000;fill:rgb(205,186,171);stroke:rgb(0,0,0);stroke-width:2"/></g>
<g fill-rule="evenodd"><path d="M 573.228,338.583 L 573.228,303.15 L 574.132,294.555 L 576.802,286.336 L 581.123,278.851 L 586.906,272.429 L 593.898,267.349 L 601.793,263.834 L 610.246,262.037 L 618.888,262.037 L 627.341,263.834 L 635.236,267.349 L 642.228,272.429 L 648.011,278.851 L 652.332,286.336 L 655.002,294.555 L 655.906,303.15 L 655.906,338.583 L 655.002,347.177 L 652.332,355.397 L 648.011,362.881 L 642.228,369.303 L 635.236,374.383 L 627.341,377.898 L 618.888,379.695 L 610.246,379.695 L 601.793,377.898 L 593.898,374.383 L 586.906,369.303 L 581.123,362.881 L 576.802,355.397 L 574.132,347.177 L 573.228,338.583 z " style="fill-opacity:1.000000;fill:rgb(242,251,227);stroke:rgb(0,0,0);stroke-width:2"/></g>
<g fill-rule="evenodd"><path d="M 673.228,379.921 L 673.228,261.811 L 755.906,261.811 L 755.906,379.921 L 673.228,379.921 z " style="fill-opacity:1.000000;fill:rgb(70,124,194);stroke:rgb(0,0,0);stroke-width:2"/></g>
<g fill-rule="evenodd"><path d="M 712.597,1580.71 L 712.597,872.045 L 713.173,870.653 L 714.565,870.077 L 1423.23,870.077 L 1424.62,870.653 L 1425.2,872.045 L 1425.2,1580.71 L 1424.62,1582.1 L 1423.23,1582.68 L 714.565,1582.68 L 713.173,1582.1 L 712.597,1580.71M 714.565,1580.71 L 1423.23,1580.71 L 1423.23,872.045 L 714.565,872.045 L 714.565,1580.71 z " style="fill-opacity:1.000000;fill:rgb(84,248,27);stroke:rgb(0,0,0);stroke-width:2"/></g>
<g fill-rule="evenodd"><path d="M 995.669,242.126 L 997.132,228.211 L 1001.46,214.903 L 1008.45,202.786 L 1017.81,192.388 L 1029.13,184.164 L 1041.92,178.473 L 1055.6,175.563 L 1069.59,175.563 L 1083.28,178.473 L 1096.06,184.164 L 1107.38,192.388 L 1116.75,202.786 L 1123.74,214.903 L 1128.06,228.211 L 1129.53,242.126 L 1128.06,256.041 L 1123.74,269.349 L 1116.75,281.466 L 1107.38,291.864 L 1096.06,300.088 L 1083.28,305.779 L 1069.59,308.688 L 1055.6,308.688 L 1041.92,305.779 L 1029.13,300.088 L 1017.81,291.864 L 1008.45,281.466 L 1001.46,269.349 L 997.132,256.041 L 995.669,242.126 z " style="fill-opacity:1.000000;fill:rgb(232,231,141);stroke:rgb(0,0,0);stroke-width:2"/></g>
<g fill-rule="evenodd"><path d="M 1195.67,242.126 L 1197.13,228.211 L 1201.46,214.903 L 1208.45,202.786 L 1217.81,192.388 L 1229.13,184.164 L 1241.92,178.473 L 1255.6,175.563 L 1269.59,175.563 L 1283.28,178.473 L 1296.06,184.164 L 1307.38,192.388 L 1316.75,202.786 L 1323.74,214.903 L 1328.06,228.211 L 1329.53,242.126 L 1328.06,256.041 L 1323.74,269.349 L 1316.75,281.466 L 1307.38,291.864 L 1296.06,300.088 L 1283.28,305.779 L 1269.59,308.688 L 1255.6,308.688 L 1241.92,305.779 L 1229.13,300.088 L 1217.81,291.864 L 1208.45,281.466 L 1201.46,269.349 L 1197.13,256.041 L 1195.67,242.126 z " style="fill-opacity:1.000000;fill:rgb(118,90,46);stroke:rgb(0,0,0);stroke-width:2"/></g>
<g fill-rule="evenodd"><path d="M 1395.67,309.055 L 1395.67,175.197 L 1529.53,175.197 L 1529.53,309.055 L 1395.67,309.055 z " style="fill-opacity:1.000000;fill:rgb(99,51,159);stroke:rgb(0,0,0);stroke-width:2"/></g>
<g fill-rule="evenodd"><path d="M 1814.97,1226.2 L 1816.72,1209.6 L 1821.94,1193.55 L 1830.37,1178.94 L 1841.66,1166.4 L 1855.31,1156.48 L 1870.73,1149.62 L 1887.23,1146.11 L 1903.9,1146.1 L 1920.61,1149.62 L 1935.84,1156.39 L 1949.82,1166.54 L 1960.96,1178.94 L 1969.4,1193.55 L 1974.61,1209.6 L 1976.38,1226.38 L 1974.61,1243.16 L 1969.4,1259.2 L 1960.96,1273.82 L 1949.67,1286.35 L 1936.02,1296.27 L 1920.61,1303.14 L 1904.11,1306.64 L 1887.44,1306.65 L 1870.53,1303.06 L 1855.31,1296.27 L 1841.52,1286.21 L 1830.37,1273.82 L 1821.94,1259.2 L 1816.72,1243.16 L 1814.97,1226.2M 1816.93,1226.38 L 1818.65,1242.75 L 1823.74,1258.4 L 1831.97,1272.66 L 1842.98,1284.89 L 1856.3,1294.57 L 1871.34,1301.26 L 1887.44,1304.69 L 1903.9,1304.69 L 1920,1301.26 L 1935.04,1294.57 L 1948.36,1284.89 L 1959.37,1272.66 L 1967.6,1258.4 L 1972.69,1242.75 L 1974.41,1226.38 L 1972.69,1210.01 L 1967.6,1194.35 L 1959.37,1180.1 L 1948.36,1167.86 L 1935.04,1158.19 L 1920,1151.49 L 1903.9,1148.07 L 1887.44,1148.07 L 1871.34,1151.49 L 1856.3,1158.19 L 1842.98,1167.86 L 1831.97,1180.1 L 1823.74,1194.35 L 1818.65,1210.01 L 1816.93,1226.38 z " style="fill-opacity:1.000000;fill:rgb(201,154,102);stroke:rgb(0,0,0);stroke-width:2"/></g>
<g fill-rule="evenodd"><path d="M 1814.97,241.945 L 1816.72,225.344 L 1821.94,209.299 L 1830.37,194.686 L 1841.66,182.146 L 1855.31,172.229 L 1870.73,165.367 L 1887.23,161.858 L 1903.9,161.847 L 1920.61,165.367 L 1935.84,172.135 L 1949.82,182.292 L 1960.96,194.686 L 1969.4,209.299 L 1974.61,225.344 L 1976.38,242.125 L 1974.61,258.905 L 1969.4,274.952 L 1960.96,289.564 L 1949.67,302.104 L 1936.02,312.02 L 1920.61,318.883 L 1904.11,322.391 L 1887.44,322.402 L 1870.53,318.81 L 1855.31,312.02 L 1841.52,301.959 L 1830.37,289.564 L 1821.94,274.952 L 1816.72,258.905 L 1814.97,241.945M 1816.93,242.125 L 1818.65,258.495 L 1823.74,274.151 L 1831.97,288.407 L 1842.98,300.641 L 1856.3,310.315 L 1871.34,317.011 L 1887.44,320.433 L 1903.9,320.433 L 1920,317.011 L 1935.04,310.315 L 1948.36,300.641 L 1959.37,288.407 L 1967.6,274.151 L 1972.69,258.495 L 1974.41,242.125 L 1972.69,225.753 L 1967.6,210.099 L 1959.37,195.843 L 1948.36,183.609 L 1935.04,173.933 L 1920,167.239 L 1903.9,163.815 L 1887.44,163.815 L 1871.34,167.239 L 1856.3,173.933 L 1842.98,183.609 L 1831.97,195.843 L 1823.74,210.099 L 1818.65,225.753 L 1816.93,242.125 z " style="fill-opacity:1.000000;fill:rgb(50,13,183);stroke:rgb(0,0,0);stroke-width:2"/></g>
</svg>
