<?xml version="1.0" standalone="no"?>
<!DOCTYPE svg PUBLIC "-//W3C//DTD SVG 1.1//EN"
"http://www.w3.org/Graphics/SVG/1.1/DTD/svg11.dtd">
<svg width="102.614" height="98.8346" viewBox="0 0 2137.8 2059.06" version="1.1"
xmlns="http://www.w3.org/2000/svg"
xmlns:xlink="http://www.w3.org/1999/xlink">
<g fill-rule="evenodd"><path d="M 84.6453,1974.41 L 84.6453,84.6453 L 2053.15,84.6453 L 2053.15,1974.41 L 84.6453,1974.41M 163.385,1226.38 L 165.105,1242.75 L 170.191,1258.4 L 178.423,1272.66 L 189.437,1284.89 L 202.755,1294.57 L 217.793,1301.26 L 233.895,1304.69 L 250.355,1304.69 L 266.457,1301.26 L 281.495,1294.57 L 294.813,1284.89 L 305.827,1272.66 L 314.057,1258.4 L 319.145,1242.75 L 320.865,1226.38 L 319.145,1210.01 L 314.057,1194.35 L 305.827,1180.1 L 294.813,1167.86 L 281.495,1158.19 L 266.457,1151.49 L 250.355,1148.07 L 233.895,1148.07 L 217.793,1151.49 L 202.755,1158.19 L 189.437,1167.86 L 178.423,1180.1 L 170.191,1194.35 L 165.105,1210.01 L 163.385,1226.38M 163.385,242.125 L 165.105,258.495 L 170.191,274.151 L 178.423,288.407 L 189.437,300.641 L 202.755,310.315 L 217.793,317.011 L 233.895,320.433 L 250.355,320.433 L 266.457,317.011 L 281.495,310.315 L 294.813,300.641 L 305.827,288.407 L 314.057,274.151 L 319.145,258.495 L 320.865,242.125 L 319.145,225.753 L 314.057,210.099 L 305.827,195.843 L 294.813,183.609 L 281.495,173.933 L 266.457,167.239 L 250.355,163.815 L 233.895,163.815 L 217.793,167.239 L 202.755,173.933 L 189.437,183.609 L 178.423,195.843 L 170.191,210.099 L 165.105,225.753 L 163.385,242.125M 714.565,1580.71 L 1423.23,1580.71 L 1423.23,872.045 L 714.565,872.045 L 714.565,1580.71M 1816.93,1226.38 L 1818.65,1242.75 L 1823.74,1258.4 L 1831.97,1272.66 L 1842.98,1284.89 L 1856.3,1294.57 L 1871.34,1301.26 L 1887.44,1304.69 L 1903.9,1304.69 L 1920,1301.26 L 1935.04,1294.57 L 1948.36,1284.89 L 1959.37,1272.66 L 1967.6,1258.4 L 1972.69,1242.75 L 1974.41,1226.38 L 1972.69,1210.01 L 1967.6,1194.35 L 1959.37,1180.1 L 1948.36,1167.86 L 1935.04,1158.19 L 1920,1151.49 L 1903.9,1148.07 L 1887.44,1148.07 L 1871.34,1151.49 L 1856.3,1158.19 L 1842.98,1167.86 L 1831.97,1180.1 L 1823.74,1194.35 L 1818.65,1210.01 L 1816.93,1226.38M 1816.93,242.125 L 1818.65,258.495 L 1823.74,274.151 L 1831.97,288.407 L 1842.98,300.641 L 1856.3,310.315 L 1871.34,317.011 L 1887.44,320.433 L 1903.9,320.433 L 1920,317.011 L 1935.04,310.315 L 1948.36,300.641 L 1959.37,288.407 L 1967.6,274.151 L 1972.69,258.495 L 1974.41,242.125 L 1972.69,225.753 L 1967.6,210.099 L 1959.37,195.843 L 1948.36,183.609 L 1935.04,173.933 L 1920,167.239 L 1903.9,163.815 L 1887.44,163.815 L 1871.34,167.239 L 1856.3,173.933 L 1842.98,183.609 L 1831.97,195.843 L 1823.74,210.099 L 1818.65,225.753 L 1816.93,242.125 z " style="fill-opacity:1.000000;fill:rgb(103,198,105);stroke:rgb(0,0,0);stroke-width:2"/></g>
</svg>
