<?xml version="1.0" standalone="no"?>
<!DOCTYPE svg PUBLIC "-//W3C//DTD SVG 1.1//EN"
"http://www.w3.org/Graphics/SVG/1.1/DTD/svg11.dtd">
<svg width="102.614" height="98.8346" viewBox="0 0 2137.8 2059.06" version="1.1"
xmlns="http://www.w3.org/2000/svg"
xmlns:xlink="http://www.w3.org/1999/xlink">
<polyline points="132.377,245.441 132.381,238.371 133.245,222.007 134.019,214.665 136.053,201.823 138.185,195.847 139.757,192.763 148.195,178.151 152.255,172.561 165.993,157.573 182.335,145.477 188.323,142.019 202.431,135.841 210.143,134.615 226.689,132.877 233.829,132.499 250.165,132.495 257.291,132.863 274.039,134.609 282.257,135.933 298.817,143.491 318.409,157.727 334.177,175.259 346.061,195.847 353.413,218.467 355.899,242.125 353.413,265.779 346.061,288.401 334.171,308.997 318.255,326.675 299.011,340.655 277.283,350.329 254.027,355.273 233.915,355.467 227.021,354.743 210.117,351.151 203.521,349.007 185.201,340.635 168.489,328.673 163.385,324.065 150.073,308.989 138.185,288.399 136.053,282.427 134.019,269.579 133.241,262.161 132.377,245.441 140.953,241.921 143.153,263.143 148.923,281.275 150.665,285.187 160.265,301.589 172.751,315.643 175.911,318.497 189.709,328.557 193.431,330.713 210.659,338.275 231.761,342.759 252.705,342.747 273.389,338.351 292.713,329.747 308.159,318.665 311.343,315.799 323.979,301.595 333.583,285.185 335.321,281.277 340.537,265.231 341.427,261.043 343.303,242.125 341.091,221.087 334.555,200.971 323.983,182.659 309.977,167.083 294.327,155.573 290.607,153.427 273.365,145.889 254.573,141.815 250.341,141.375 231.541,141.499 212.927,145.343 208.859,146.665 191.535,154.499 176.087,165.585 172.905,168.449 160.269,182.653 150.665,199.061 148.923,202.973 143.157,221.081 140.953,241.921 153.549,241.935 155.477,223.703 160.903,206.865 170.977,189.417 182.849,176.293 197.141,165.857 213.981,158.173 233.683,153.983 251.167,154.013 268.687,157.661 286.229,165.313 302.131,177.027 313.791,190.059 322.673,205.361 328.557,222.909 330.707,242.125 328.771,260.541 322.673,278.887 313.789,294.191 301.981,307.371 286.415,318.839 269.497,326.371 251.385,330.221 233.073,330.231 214.555,326.297 197.131,318.381 182.117,307.221 170.457,294.189 161.573,278.889 155.475,260.533 153.549,241.935" style="stroke:rgb(103,198,105);stroke-width:15.748031;fill:none;stroke-opacity:0.5;stroke-linecap:round;stroke-linejoin:round;;fill:none"/>
<polyline points="132.377,245.441 132.381,238.371 133.245,222.007 134.019,214.665 136.053,201.823 138.185,195.847 139.757,192.763 148.195,178.151 152.255,172.561 165.993,157.573 182.335,145.477 188.323,142.019 202.431,135.841 210.143,134.615 226.689,132.877 233.829,132.499 250.165,132.495 257.291,132.863 274.039,134.609 282.257,135.933 298.817,143.491 318.409,157.727 334.177,175.259 346.061,195.847 353.413,218.467 355.899,242.125 353.413,265.779 346.061,288.401 334.171,308.997 318.255,326.675 299.011,340.655 277.283,350.329 254.027,355.273 233.915,355.467 227.021,354.743 210.117,351.151 203.521,349.007 185.201,340.635 168.489,328.673 163.385,324.065 150.073,308.989 138.185,288.399 136.053,282.427 134.019,269.579 133.241,262.161 132.377,245.441 140.953,241.921 143.153,263.143 148.923,281.275 150.665,285.187 160.265,301.589 172.751,315.643 175.911,318.497 189.709,328.557 193.431,330.713 210.659,338.275 231.761,342.759 252.705,342.747 273.389,338.351 292.713,329.747 308.159,318.665 311.343,315.799 323.979,301.595 333.583,285.185 335.321,281.277 340.537,265.231 341.427,261.043 343.303,242.125 341.091,221.087 334.555,200.971 323.983,182.659 309.977,167.083 294.327,155.573 290.607,153.427 273.365,145.889 254.573,141.815 250.341,141.375 231.541,141.499 212.927,145.343 208.859,146.665 191.535,154.499 176.087,165.585 172.905,168.449 160.269,182.653 150.665,199.061 148.923,202.973 143.157,221.081 140.953,241.921 153.549,241.935 155.477,223.703 160.903,206.865 170.977,189.417 182.849,176.293 197.141,165.857 213.981,158.173 233.683,153.983 251.167,154.013 268.687,157.661 286.229,165.313 302.131,177.027 313.791,190.059 322.673,205.361 328.557,222.909 330.707,242.125 328.771,260.541 322.673,278.887 313.789,294.191 301.981,307.371 286.415,318.839 269.497,326.371 251.385,330.221 233.073,330.231 214.555,326.297 197.131,318.381 182.117,307.221 170.457,294.189 161.573,278.889 155.475,260.533 153.549,241.935" style="stroke:rgb(0,0,0);stroke-width:1px;fill:none;stroke-opacity:1;stroke-linecap:round;stroke-linejoin:round;;fill:none"/>
<polyline points="171.301,242.123 172.849,227.397 177.423,213.319 184.827,200.495 194.733,189.491 206.713,180.789 220.239,174.767 234.721,171.689 249.527,171.689 264.009,174.767 277.535,180.789 289.515,189.491 299.421,200.495 306.823,213.319 311.399,227.399 312.947,242.123 311.399,256.847 306.823,270.929 299.421,283.753 289.515,294.757 277.535,303.457 264.009,309.481 249.527,312.557 234.721,312.557 220.239,309.481 206.713,303.457 194.733,294.757 184.827,283.753 177.423,270.929 172.849,256.849 171.301,242.123" style="stroke:rgb(103,198,105);stroke-width:15.748031;fill:none;stroke-opacity:0.5;stroke-linecap:round;stroke-linejoin:round;;fill:none"/>
<polyline points="171.301,242.123 172.849,227.397 177.423,213.319 184.827,200.495 194.733,189.491 206.713,180.789 220.239,174.767 234.721,171.689 249.527,171.689 264.009,174.767 277.535,180.789 289.515,189.491 299.421,200.495 306.823,213.319 311.399,227.399 312.947,242.123 311.399,256.847 306.823,270.929 299.421,283.753 289.515,294.757 277.535,303.457 264.009,309.481 249.527,312.557 234.721,312.557 220.239,309.481 206.713,303.457 194.733,294.757 184.827,283.753 177.423,270.929 172.849,256.849 171.301,242.123" style="stroke:rgb(0,0,0);stroke-width:1px;fill:none;stroke-opacity:1;stroke-linecap:round;stroke-linejoin:round;;fill:none"/>
<polyline points="440.161,338.581 441.245,350.633 442.683,357.395 446.593,368.845 452.487,379.413 456.549,385.005 464.779,393.875 474.461,401.133 480.447,404.589 491.573,409.345 503.369,412.037 510.245,412.759 522.343,412.579 534.215,410.239 540.789,408.103 551.767,403.017 558.267,398.519 558.267,360.861 558.267,382.079 554.259,385.863 545.469,392.109 533.665,397.365 521.027,400.051 510.245,400.163 505.989,399.717 495.465,397.365 483.661,392.109 473.207,384.515 465.909,376.577 463.395,373.115 459.073,365.631 457.333,361.721 454.107,351.433 452.757,338.581 452.757,303.149 454.107,290.297 458.101,278.009 463.395,268.615 465.909,265.153 473.207,257.215 481.865,250.787 485.571,248.647 495.465,244.365 508.105,241.679 518.887,241.567 523.143,242.013 531.595,243.811 535.665,245.133 545.469,249.621 554.259,255.867 558.267,259.649 558.267,280.867 554.379,274.221 547.495,266.577 539.171,260.529 529.773,256.345 519.709,254.205 509.421,254.205 499.359,256.345 489.959,260.529 481.635,266.577 474.751,274.221 469.607,283.131 466.641,292.121 465.353,303.149 465.397,339.405 466.429,348.813 469.313,357.829 474.751,367.507 482.277,375.673 489.959,381.201 498.589,385.089 509.421,387.525 520.523,387.395 529.773,385.385 538.437,381.575 547.495,375.153 554.379,367.507 559.523,358.597 562.703,348.813 563.735,339.405 563.735,302.325 562.703,292.917 559.819,283.901 558.267,280.867 558.267,243.209 551.767,238.713 537.557,232.385 522.343,229.151 506.789,229.151 491.573,232.385 480.447,237.141 474.461,240.597 467.469,245.677 462.333,250.303 454.371,259.415 448.165,269.801 445.353,276.117 441.787,287.679 440.161,303.149 440.161,338.581 465.353,338.581" style="stroke:rgb(103,198,105);stroke-width:15.748031;fill:none;stroke-opacity:0.5;stroke-linecap:round;stroke-linejoin:round;;fill:none"/>
<polyline points="440.161,338.581 441.245,350.633 442.683,357.395 446.593,368.845 452.487,379.413 456.549,385.005 464.779,393.875 474.461,401.133 480.447,404.589 491.573,409.345 503.369,412.037 510.245,412.759 522.343,412.579 534.215,410.239 540.789,408.103 551.767,403.017 558.267,398.519 558.267,360.861 558.267,382.079 554.259,385.863 545.469,392.109 533.665,397.365 521.027,400.051 510.245,400.163 505.989,399.717 495.465,397.365 483.661,392.109 473.207,384.515 465.909,376.577 463.395,373.115 459.073,365.631 457.333,361.721 454.107,351.433 452.757,338.581 452.757,303.149 454.107,290.297 458.101,278.009 463.395,268.615 465.909,265.153 473.207,257.215 481.865,250.787 485.571,248.647 495.465,244.365 508.105,241.679 518.887,241.567 523.143,242.013 531.595,243.811 535.665,245.133 545.469,249.621 554.259,255.867 558.267,259.649 558.267,280.867 554.379,274.221 547.495,266.577 539.171,260.529 529.773,256.345 519.709,254.205 509.421,254.205 499.359,256.345 489.959,260.529 481.635,266.577 474.751,274.221 469.607,283.131 466.641,292.121 465.353,303.149 465.397,339.405 466.429,348.813 469.313,357.829 474.751,367.507 482.277,375.673 489.959,381.201 498.589,385.089 509.421,387.525 520.523,387.395 529.773,385.385 538.437,381.575 547.495,375.153 554.379,367.507 559.523,358.597 562.703,348.813 563.735,339.405 563.735,302.325 562.703,292.917 559.819,283.901 558.267,280.867 558.267,243.209 551.767,238.713 537.557,232.385 522.343,229.151 506.789,229.151 491.573,232.385 480.447,237.141 474.461,240.597 467.469,245.677 462.333,250.303 454.371,259.415 448.165,269.801 445.353,276.117 441.787,287.679 440.161,303.149 440.161,338.581 465.353,338.581" style="stroke:rgb(0,0,0);stroke-width:1px;fill:none;stroke-opacity:1;stroke-linecap:round;stroke-linejoin:round;;fill:none"/>
<polyline points="646.071,250.011 635.665,245.133 631.595,243.811 621.027,241.679 608.105,241.679 595.465,244.365 585.571,248.647 581.865,250.787 574.873,255.867 570.863,259.653 570.863,280.871 574.751,274.221 581.635,266.577 589.959,260.529 599.359,256.345 609.421,254.205 619.709,254.205 629.773,256.345 638.437,260.155 647.495,266.577 654.829,274.913 659.523,283.131 662.489,292.121 663.779,303.149 663.779,338.581 662.703,348.813 659.523,358.597 654.829,366.817 653.407,368.653 648.037,383.459 645.259,395.183 643.555,406.873 637.557,409.345 622.343,412.579 606.789,412.579 591.573,409.345 577.363,403.017 570.863,398.519 570.863,360.859 569.981,359.333 570.863,360.861 570.863,382.077 571.693,382.999 574.873,385.863 581.865,390.943 585.571,393.081 595.465,397.365 608.105,400.051 621.027,400.051 631.595,397.919 635.665,396.597 646.069,391.721 648.037,383.459 653.407,368.653 647.495,375.153 639.863,380.751 630.543,385.089 619.709,387.525 610.245,387.567 599.359,385.385 589.959,381.201 581.635,375.153 574.751,367.507 569.607,358.597 566.641,349.609 565.353,338.581 565.397,302.325 566.429,292.917 569.313,283.901 570.863,280.871 570.863,243.211 577.363,238.713 588.343,233.625 594.917,231.489 603.369,229.693 610.245,228.971 622.343,229.151 637.557,232.385 643.555,234.857 645.159,246.011 647.863,257.659 653.409,273.081" style="stroke:rgb(103,198,105);stroke-width:15.748031;fill:none;stroke-opacity:0.5;stroke-linecap:round;stroke-linejoin:round;;fill:none"/>
<polyline points="646.071,250.011 635.665,245.133 631.595,243.811 621.027,241.679 608.105,241.679 595.465,244.365 585.571,248.647 581.865,250.787 574.873,255.867 570.863,259.653 570.863,280.871 574.751,274.221 581.635,266.577 589.959,260.529 599.359,256.345 609.421,254.205 619.709,254.205 629.773,256.345 638.437,260.155 647.495,266.577 654.829,274.913 659.523,283.131 662.489,292.121 663.779,303.149 663.779,338.581 662.703,348.813 659.523,358.597 654.829,366.817 653.407,368.653 648.037,383.459 645.259,395.183 643.555,406.873 637.557,409.345 622.343,412.579 606.789,412.579 591.573,409.345 577.363,403.017 570.863,398.519 570.863,360.859 569.981,359.333 570.863,360.861 570.863,382.077 571.693,382.999 574.873,385.863 581.865,390.943 585.571,393.081 595.465,397.365 608.105,400.051 621.027,400.051 631.595,397.919 635.665,396.597 646.069,391.721 648.037,383.459 653.407,368.653 647.495,375.153 639.863,380.751 630.543,385.089 619.709,387.525 610.245,387.567 599.359,385.385 589.959,381.201 581.635,375.153 574.751,367.507 569.607,358.597 566.641,349.609 565.353,338.581 565.397,302.325 566.429,292.917 569.313,283.901 570.863,280.871 570.863,243.211 577.363,238.713 588.343,233.625 594.917,231.489 603.369,229.693 610.245,228.971 622.343,229.151 637.557,232.385 643.555,234.857 645.159,246.011 647.863,257.659 653.409,273.081" style="stroke:rgb(0,0,0);stroke-width:1px;fill:none;stroke-opacity:1;stroke-linecap:round;stroke-linejoin:round;;fill:none"/>
<polyline points="665.353,372.651 660.055,387.243 657.585,397.793 656.095,408.075 660.573,410.469 666.777,412.351 673.227,412.985 755.905,412.985 762.355,412.351 768.557,410.469 774.275,407.413 779.285,403.301 783.397,398.291 786.453,392.573 788.335,386.371 788.971,379.919 788.971,261.809 788.335,255.359 786.453,249.155 783.397,243.439 779.285,238.429 774.275,234.317 768.557,231.261 762.355,229.379 755.905,228.743 673.227,228.743 666.777,229.379 660.573,231.261 656.093,233.655 657.583,243.927 660.055,254.479 665.353,269.077 665.353,379.919 661.835,382.121 665.353,379.919 665.953,382.933 667.659,385.487 670.213,387.195 671.691,387.643 755.905,387.793 758.917,387.195 760.279,386.467 762.451,384.295 763.627,381.457 763.779,379.919 763.779,261.809 763.179,258.797 761.471,256.241 758.917,254.535 755.905,253.935 673.227,253.935 670.213,254.535 668.853,255.263 667.659,256.241 665.953,258.797 665.353,261.809 665.353,269.077 660.055,254.479 658.463,247.687 658.753,247.335 661.855,244.789 665.393,242.897 669.233,241.733 673.227,241.339 755.905,241.339 759.897,241.733 763.737,242.897 767.277,244.789 770.379,247.335 772.925,250.437 774.815,253.977 775.981,257.817 776.375,261.809 776.375,379.919 775.981,383.913 774.815,387.753 772.925,391.293 770.379,394.395 767.277,396.941 763.737,398.831 759.897,399.997 755.905,400.389 673.227,400.389 669.233,399.997 665.393,398.831 661.855,396.941 658.463,394.043" style="stroke:rgb(103,198,105);stroke-width:15.748031;fill:none;stroke-opacity:0.5;stroke-linecap:round;stroke-linejoin:round;;fill:none"/>
<polyline points="665.353,372.651 660.055,387.243 657.585,397.793 656.095,408.075 660.573,410.469 666.777,412.351 673.227,412.985 755.905,412.985 762.355,412.351 768.557,410.469 774.275,407.413 779.285,403.301 783.397,398.291 786.453,392.573 788.335,386.371 788.971,379.919 788.971,261.809 788.335,255.359 786.453,249.155 783.397,243.439 779.285,238.429 774.275,234.317 768.557,231.261 762.355,229.379 755.905,228.743 673.227,228.743 666.777,229.379 660.573,231.261 656.093,233.655 657.583,243.927 660.055,254.479 665.353,269.077 665.353,379.919 661.835,382.121 665.353,379.919 665.953,382.933 667.659,385.487 670.213,387.195 671.691,387.643 755.905,387.793 758.917,387.195 760.279,386.467 762.451,384.295 763.627,381.457 763.779,379.919 763.779,261.809 763.179,258.797 761.471,256.241 758.917,254.535 755.905,253.935 673.227,253.935 670.213,254.535 668.853,255.263 667.659,256.241 665.953,258.797 665.353,261.809 665.353,269.077 660.055,254.479 658.463,247.687 658.753,247.335 661.855,244.789 665.393,242.897 669.233,241.733 673.227,241.339 755.905,241.339 759.897,241.733 763.737,242.897 767.277,244.789 770.379,247.335 772.925,250.437 774.815,253.977 775.981,257.817 776.375,261.809 776.375,379.919 775.981,383.913 774.815,387.753 772.925,391.293 770.379,394.395 767.277,396.941 763.737,398.831 759.897,399.997 755.905,400.389 673.227,400.389 669.233,399.997 665.393,398.831 661.855,396.941 658.463,394.043" style="stroke:rgb(0,0,0);stroke-width:1px;fill:none;stroke-opacity:1;stroke-linecap:round;stroke-linejoin:round;;fill:none"/>
<polyline points="962.603,242.125 964.785,262.915 970.005,279.565 972.819,285.881 979.815,297.997 983.877,303.589 995.685,316.435 1012.6,328.723 1031.7,337.225 1048.73,341.031 1055.6,341.753 1069.59,341.753 1076.47,341.031 1093.5,337.225 1112.6,328.723 1129.51,316.435 1141.32,303.589 1145.38,297.997 1152.38,285.881 1153.95,282.797 1156.3,276.147 1156.3,208.103 1153.95,201.453 1145.38,186.251 1141.32,180.659 1129.51,167.813 1112.6,155.527 1093.5,147.023 1076.47,143.219 1069.59,142.497 1052.15,142.677 1031.7,147.023 1012.6,155.527 995.685,167.813 981.699,183.349 971.247,201.453 964.785,221.335 962.603,242.125 975.199,242.125 977.107,260.295 981.987,275.673 983.727,279.583 990.723,291.699 993.239,295.161 1004.12,307.075 1017.1,316.647 1020.81,318.787 1035.59,325.247 1051.35,328.709 1055.6,329.157 1071.73,329.045 1089.61,325.247 1104.39,318.787 1108.09,316.647 1121.08,307.075 1131.96,295.161 1134.47,291.699 1142.44,277.673 1148.09,260.295 1150,242.125 1148.42,226.069 1147.53,221.883 1142.44,206.577 1134.47,192.549 1131.96,189.087 1122.59,178.689 1119.41,175.827 1106.3,166.435 1089.61,159.003 1071.73,155.205 1053.46,155.205 1035.59,159.003 1020.81,165.463 1017.1,167.601 1005.78,175.827 1002.6,178.689 991.889,190.753 983.727,204.667 981.987,208.577 977.107,223.953 975.199,242.125 987.793,242.125 989.429,257.677 993.963,271.781 1002.08,286.093 1013.19,298.233 1025.2,306.907 1038.71,312.971 1054.78,316.519 1071.23,316.389 1085.71,313.267 1099.27,307.281 1112.65,297.715 1123.12,286.093 1131.23,271.781 1135.9,256.863 1137.4,242.125 1135.9,227.387 1130.93,211.699 1123.12,198.157 1112.65,186.535 1099.27,176.969 1084.92,170.769 1070.42,167.731 1055.6,167.689 1039.48,170.983 1025.2,177.343 1012.55,186.535 1001.63,198.847 994.259,211.699 989.639,225.777 987.793,242.125" style="stroke:rgb(103,198,105);stroke-width:15.748031;fill:none;stroke-opacity:0.5;stroke-linecap:round;stroke-linejoin:round;;fill:none"/>
<polyline points="962.603,242.125 964.785,262.915 970.005,279.565 972.819,285.881 979.815,297.997 983.877,303.589 995.685,316.435 1012.6,328.723 1031.7,337.225 1048.73,341.031 1055.6,341.753 1069.59,341.753 1076.47,341.031 1093.5,337.225 1112.6,328.723 1129.51,316.435 1141.32,303.589 1145.38,297.997 1152.38,285.881 1153.95,282.797 1156.3,276.147 1156.3,208.103 1153.95,201.453 1145.38,186.251 1141.32,180.659 1129.51,167.813 1112.6,155.527 1093.5,147.023 1076.47,143.219 1069.59,142.497 1052.15,142.677 1031.7,147.023 1012.6,155.527 995.685,167.813 981.699,183.349 971.247,201.453 964.785,221.335 962.603,242.125 975.199,242.125 977.107,260.295 981.987,275.673 983.727,279.583 990.723,291.699 993.239,295.161 1004.12,307.075 1017.1,316.647 1020.81,318.787 1035.59,325.247 1051.35,328.709 1055.6,329.157 1071.73,329.045 1089.61,325.247 1104.39,318.787 1108.09,316.647 1121.08,307.075 1131.96,295.161 1134.47,291.699 1142.44,277.673 1148.09,260.295 1150,242.125 1148.42,226.069 1147.53,221.883 1142.44,206.577 1134.47,192.549 1131.96,189.087 1122.59,178.689 1119.41,175.827 1106.3,166.435 1089.61,159.003 1071.73,155.205 1053.46,155.205 1035.59,159.003 1020.81,165.463 1017.1,167.601 1005.78,175.827 1002.6,178.689 991.889,190.753 983.727,204.667 981.987,208.577 977.107,223.953 975.199,242.125 987.793,242.125 989.429,257.677 993.963,271.781 1002.08,286.093 1013.19,298.233 1025.2,306.907 1038.71,312.971 1054.78,316.519 1071.23,316.389 1085.71,313.267 1099.27,307.281 1112.65,297.715 1123.12,286.093 1131.23,271.781 1135.9,256.863 1137.4,242.125 1135.9,227.387 1130.93,211.699 1123.12,198.157 1112.65,186.535 1099.27,176.969 1084.92,170.769 1070.42,167.731 1055.6,167.689 1039.48,170.983 1025.2,177.343 1012.55,186.535 1001.63,198.847 994.259,211.699 989.639,225.777 987.793,242.125" style="stroke:rgb(0,0,0);stroke-width:1px;fill:none;stroke-opacity:1;stroke-linecap:round;stroke-linejoin:round;;fill:none"/>
<polyline points="1168.89,276.141 1168.89,208.109 1171.25,201.453 1172.82,198.369 1181.7,183.349 1195.69,167.813 1209.7,157.411 1215.68,153.955 1231.7,147.023 1248.73,143.219 1255.6,142.497 1273.05,142.677 1293.5,147.023 1309.51,153.955 1315.5,157.411 1326.82,165.635 1331.96,170.261 1343.5,183.349 1350.43,195.003 1352.61,204.659 1354.77,218.323 1355.49,225.157 1356.21,238.819 1356.21,245.429 1355.49,259.091 1354.77,265.925 1352.61,279.589 1350.43,289.249 1343.5,300.901 1331.96,313.989 1326.82,318.613 1312.6,328.723 1296.73,335.985 1290.16,338.121 1273.05,341.571 1255.6,341.753 1248.73,341.031 1231.7,337.225 1215.68,330.295 1209.7,326.837 1195.69,316.435 1183.88,303.589 1179.82,297.997 1171.25,282.797 1168.89,276.141 1175.2,242.125 1176.77,226.069 1177.66,221.883 1182.76,206.577 1190.72,192.549 1193.24,189.087 1202.6,178.689 1205.78,175.827 1218.9,166.435 1233.59,159.771 1237.66,158.449 1253.46,155.205 1269.59,155.093 1273.85,155.539 1289.61,159.003 1304.39,165.463 1308.09,167.601 1321.08,177.175 1331.96,189.087 1334.47,192.549 1342.44,206.577 1348.09,223.953 1349.89,239.985 1349.89,244.265 1348.09,260.295 1343.21,275.673 1341.47,279.583 1333.31,293.497 1321.08,307.075 1306.3,317.815 1291.61,324.479 1287.54,325.801 1271.73,329.045 1255.6,329.157 1251.35,328.709 1235.59,325.247 1218.9,317.815 1205.78,308.423 1202.6,305.559 1191.89,293.497 1183.73,279.583 1181.99,275.673 1177.11,260.295 1175.2,242.125 1187.79,242.125 1189.43,257.677 1193.97,271.781 1202.08,286.093 1213.19,298.233 1225.2,306.907 1239.48,313.267 1254.78,316.519 1270.42,316.519 1285.71,313.267 1300.69,306.457 1313.23,297.131 1323.12,286.093 1330.56,273.285 1335.77,257.677 1337.4,242.125 1335.55,225.777 1330.93,211.699 1323.56,198.847 1312.65,186.535 1299.27,176.969 1284.92,170.769 1270.42,167.731 1255.6,167.689 1239.48,170.983 1225.2,177.343 1212.55,186.535 1201.63,198.847 1194.26,211.699 1189.64,225.777 1187.79,242.125" style="stroke:rgb(103,198,105);stroke-width:15.748031;fill:none;stroke-opacity:0.5;stroke-linecap:round;stroke-linejoin:round;;fill:none"/>
<polyline points="1168.89,276.141 1168.89,208.109 1171.25,201.453 1172.82,198.369 1181.7,183.349 1195.69,167.813 1209.7,157.411 1215.68,153.955 1231.7,147.023 1248.73,143.219 1255.6,142.497 1273.05,142.677 1293.5,147.023 1309.51,153.955 1315.5,157.411 1326.82,165.635 1331.96,170.261 1343.5,183.349 1350.43,195.003 1352.61,204.659 1354.77,218.323 1355.49,225.157 1356.21,238.819 1356.21,245.429 1355.49,259.091 1354.77,265.925 1352.61,279.589 1350.43,289.249 1343.5,300.901 1331.96,313.989 1326.82,318.613 1312.6,328.723 1296.73,335.985 1290.16,338.121 1273.05,341.571 1255.6,341.753 1248.73,341.031 1231.7,337.225 1215.68,330.295 1209.7,326.837 1195.69,316.435 1183.88,303.589 1179.82,297.997 1171.25,282.797 1168.89,276.141 1175.2,242.125 1176.77,226.069 1177.66,221.883 1182.76,206.577 1190.72,192.549 1193.24,189.087 1202.6,178.689 1205.78,175.827 1218.9,166.435 1233.59,159.771 1237.66,158.449 1253.46,155.205 1269.59,155.093 1273.85,155.539 1289.61,159.003 1304.39,165.463 1308.09,167.601 1321.08,177.175 1331.96,189.087 1334.47,192.549 1342.44,206.577 1348.09,223.953 1349.89,239.985 1349.89,244.265 1348.09,260.295 1343.21,275.673 1341.47,279.583 1333.31,293.497 1321.08,307.075 1306.3,317.815 1291.61,324.479 1287.54,325.801 1271.73,329.045 1255.6,329.157 1251.35,328.709 1235.59,325.247 1218.9,317.815 1205.78,308.423 1202.6,305.559 1191.89,293.497 1183.73,279.583 1181.99,275.673 1177.11,260.295 1175.2,242.125 1187.79,242.125 1189.43,257.677 1193.97,271.781 1202.08,286.093 1213.19,298.233 1225.2,306.907 1239.48,313.267 1254.78,316.519 1270.42,316.519 1285.71,313.267 1300.69,306.457 1313.23,297.131 1323.12,286.093 1330.56,273.285 1335.77,257.677 1337.4,242.125 1335.55,225.777 1330.93,211.699 1323.56,198.847 1312.65,186.535 1299.27,176.969 1284.92,170.769 1270.42,167.731 1255.6,167.689 1239.48,170.983 1225.2,177.343 1212.55,186.535 1201.63,198.847 1194.26,211.699 1189.64,225.777 1187.79,242.125" style="stroke:rgb(0,0,0);stroke-width:1px;fill:none;stroke-opacity:1;stroke-linecap:round;stroke-linejoin:round;;fill:none"/>
<polyline points="1362.6,309.053 1362.6,292.493 1364.96,282.053 1367.26,267.737 1368.06,259.917 1368.83,245.593 1368.8,238.325 1368.06,224.331 1367.31,216.835 1364.96,202.195 1362.6,191.755 1362.6,175.195 1363.24,168.745 1365.12,162.541 1368.18,156.825 1372.29,151.815 1377.3,147.703 1383.02,144.647 1389.22,142.765 1395.67,142.129 1529.53,142.129 1535.98,142.765 1542.18,144.647 1547.9,147.703 1552.91,151.815 1557.02,156.825 1560.08,162.541 1561.96,168.745 1562.59,175.195 1562.59,309.053 1561.96,315.505 1560.08,321.707 1557.02,327.425 1552.91,332.435 1547.9,336.547 1542.18,339.603 1535.98,341.485 1529.53,342.119 1395.67,342.119 1389.22,341.485 1383.02,339.603 1377.3,336.547 1372.29,332.435 1368.18,327.425 1365.12,321.707 1363.24,315.505 1362.6,309.053 1375.2,309.053 1375.2,175.195 1375.59,171.203 1376.76,167.363 1378.65,163.823 1381.19,160.721 1384.3,158.175 1387.84,156.283 1391.68,155.119 1395.67,154.725 1529.53,154.725 1533.52,155.119 1537.36,156.283 1540.9,158.175 1544,160.721 1546.55,163.823 1548.44,167.363 1549.6,171.203 1550,175.195 1550,309.053 1549.6,313.047 1548.44,316.887 1546.55,320.427 1544,323.529 1540.9,326.073 1537.36,327.965 1533.52,329.131 1529.53,329.523 1395.67,329.523 1391.68,329.131 1387.84,327.965 1384.3,326.073 1381.19,323.529 1378.65,320.427 1376.76,316.887 1375.59,313.047 1375.2,309.053 1387.79,309.053 1388.39,312.067 1390.1,314.621 1392.66,316.329 1395.67,316.927 1529.53,316.927 1532.54,316.329 1535.1,314.621 1536.8,312.067 1537.4,309.053 1537.4,175.195 1536.8,172.183 1535.1,169.627 1532.54,167.921 1529.53,167.321 1395.67,167.321 1392.66,167.921 1390.1,169.627 1388.39,172.183 1387.79,175.195 1387.79,309.053" style="stroke:rgb(103,198,105);stroke-width:15.748031;fill:none;stroke-opacity:0.5;stroke-linecap:round;stroke-linejoin:round;;fill:none"/>
<polyline points="1362.6,309.053 1362.6,292.493 1364.96,282.053 1367.26,267.737 1368.06,259.917 1368.83,245.593 1368.8,238.325 1368.06,224.331 1367.31,216.835 1364.96,202.195 1362.6,191.755 1362.6,175.195 1363.24,168.745 1365.12,162.541 1368.18,156.825 1372.29,151.815 1377.3,147.703 1383.02,144.647 1389.22,142.765 1395.67,142.129 1529.53,142.129 1535.98,142.765 1542.18,144.647 1547.9,147.703 1552.91,151.815 1557.02,156.825 1560.08,162.541 1561.96,168.745 1562.59,175.195 1562.59,309.053 1561.96,315.505 1560.08,321.707 1557.02,327.425 1552.91,332.435 1547.9,336.547 1542.18,339.603 1535.98,341.485 1529.53,342.119 1395.67,342.119 1389.22,341.485 1383.02,339.603 1377.3,336.547 1372.29,332.435 1368.18,327.425 1365.12,321.707 1363.24,315.505 1362.6,309.053 1375.2,309.053 1375.2,175.195 1375.59,171.203 1376.76,167.363 1378.65,163.823 1381.19,160.721 1384.3,158.175 1387.84,156.283 1391.68,155.119 1395.67,154.725 1529.53,154.725 1533.52,155.119 1537.36,156.283 1540.9,158.175 1544,160.721 1546.55,163.823 1548.44,167.363 1549.6,171.203 1550,175.195 1550,309.053 1549.6,313.047 1548.44,316.887 1546.55,320.427 1544,323.529 1540.9,326.073 1537.36,327.965 1533.52,329.131 1529.53,329.523 1395.67,329.523 1391.68,329.131 1387.84,327.965 1384.3,326.073 1381.19,323.529 1378.65,320.427 1376.76,316.887 1375.59,313.047 1375.2,309.053 1387.79,309.053 1388.39,312.067 1390.1,314.621 1392.66,316.329 1395.67,316.927 1529.53,316.927 1532.54,316.329 1535.1,314.621 1536.8,312.067 1537.4,309.053 1537.4,175.195 1536.8,172.183 1535.1,169.627 1532.54,167.921 1529.53,167.321 1395.67,167.321 1392.66,167.921 1390.1,169.627 1388.39,172.183 1387.79,175.195 1387.79,309.053" style="stroke:rgb(0,0,0);stroke-width:1px;fill:none;stroke-opacity:1;stroke-linecap:round;stroke-linejoin:round;;fill:none"/>
<polyline points="1781.9,241.907 1784.37,265.753 1790.49,285.167 1793.3,291.483 1801.74,306.095 1805.79,311.673 1819.36,326.503 1838.74,340.633 1860.31,350.253 1880.56,354.743 1887.46,355.467 1904.13,355.455 1910.98,354.733 1930.83,350.329 1952.56,340.655 1971.8,326.677 1985.54,311.689 1989.6,306.095 1998.04,291.483 1999.61,288.399 2001.74,282.433 2003.77,269.577 2004.55,262.219 2005.41,245.679 2005.41,238.571 2004.55,222.025 2003.77,214.665 2001.74,201.817 1999.61,195.849 1987.72,175.259 1971.95,157.725 1952.36,143.493 1935.34,135.835 1927.58,134.609 1910.84,132.863 1903.71,132.495 1887.37,132.499 1880.23,132.877 1863.69,134.615 1855.54,135.933 1841.87,142.019 1835.88,145.477 1819.54,157.573 1805.8,172.559 1801.74,178.153 1793.3,192.765 1790.49,199.081 1784.38,218.457 1781.9,241.907 1794.5,241.921 1796.7,263.143 1802.47,281.275 1804.21,285.185 1812.64,299.797 1815.15,303.251 1827.8,317.153 1843.25,328.557 1846.97,330.713 1862.2,337.503 1866.28,338.831 1885.3,342.759 1904.12,342.859 1908.36,342.413 1926.93,338.351 1944.35,330.719 1948.05,328.579 1963.37,317.315 1977.52,301.595 1987.13,285.185 1988.87,281.275 1994.64,263.159 1996.74,244.265 1996.74,239.983 1994.97,223.201 1994.08,219.017 1988.1,200.973 1977.53,182.659 1963.52,167.083 1947.87,155.573 1944.15,153.427 1928.92,146.659 1924.83,145.335 1906.01,141.485 1887.22,141.387 1882.97,141.835 1864.4,145.897 1845.08,154.499 1827.97,166.933 1815.16,180.987 1812.64,184.451 1803.24,200.973 1797.26,219.017 1796.37,223.189 1794.5,241.921 1807.09,241.935 1809.23,222.909 1814.74,206.095 1823.55,190.749 1836.39,176.293 1851.38,165.409 1868.29,157.877 1887.23,153.983 1904.71,154.013 1922.23,157.661 1939.77,165.313 1955.09,176.441 1967.78,190.749 1976.59,206.095 1982.1,222.909 1984.25,242.125 1982.1,261.337 1976.59,278.153 1967.78,293.499 1954.94,307.955 1939.96,318.837 1922.25,326.585 1904.93,330.221 1887.44,330.275 1868.1,326.297 1851.37,318.833 1835.66,307.223 1824,294.189 1815.12,278.887 1809.02,260.535 1807.09,241.935" style="stroke:rgb(103,198,105);stroke-width:15.748031;fill:none;stroke-opacity:0.5;stroke-linecap:round;stroke-linejoin:round;;fill:none"/>
<polyline points="1781.9,241.907 1784.37,265.753 1790.49,285.167 1793.3,291.483 1801.74,306.095 1805.79,311.673 1819.36,326.503 1838.74,340.633 1860.31,350.253 1880.56,354.743 1887.46,355.467 1904.13,355.455 1910.98,354.733 1930.83,350.329 1952.56,340.655 1971.8,326.677 1985.54,311.689 1989.6,306.095 1998.04,291.483 1999.61,288.399 2001.74,282.433 2003.77,269.577 2004.55,262.219 2005.41,245.679 2005.41,238.571 2004.55,222.025 2003.77,214.665 2001.74,201.817 1999.61,195.849 1987.72,175.259 1971.95,157.725 1952.36,143.493 1935.34,135.835 1927.58,134.609 1910.84,132.863 1903.71,132.495 1887.37,132.499 1880.23,132.877 1863.69,134.615 1855.54,135.933 1841.87,142.019 1835.88,145.477 1819.54,157.573 1805.8,172.559 1801.74,178.153 1793.3,192.765 1790.49,199.081 1784.38,218.457 1781.9,241.907 1794.5,241.921 1796.7,263.143 1802.47,281.275 1804.21,285.185 1812.64,299.797 1815.15,303.251 1827.8,317.153 1843.25,328.557 1846.97,330.713 1862.2,337.503 1866.28,338.831 1885.3,342.759 1904.12,342.859 1908.36,342.413 1926.93,338.351 1944.35,330.719 1948.05,328.579 1963.37,317.315 1977.52,301.595 1987.13,285.185 1988.87,281.275 1994.64,263.159 1996.74,244.265 1996.74,239.983 1994.97,223.201 1994.08,219.017 1988.1,200.973 1977.53,182.659 1963.52,167.083 1947.87,155.573 1944.15,153.427 1928.92,146.659 1924.83,145.335 1906.01,141.485 1887.22,141.387 1882.97,141.835 1864.4,145.897 1845.08,154.499 1827.97,166.933 1815.16,180.987 1812.64,184.451 1803.24,200.973 1797.26,219.017 1796.37,223.189 1794.5,241.921 1807.09,241.935 1809.23,222.909 1814.74,206.095 1823.55,190.749 1836.39,176.293 1851.38,165.409 1868.29,157.877 1887.23,153.983 1904.71,154.013 1922.23,157.661 1939.77,165.313 1955.09,176.441 1967.78,190.749 1976.59,206.095 1982.1,222.909 1984.25,242.125 1982.1,261.337 1976.59,278.153 1967.78,293.499 1954.94,307.955 1939.96,318.837 1922.25,326.585 1904.93,330.221 1887.44,330.275 1868.1,326.297 1851.37,318.833 1835.66,307.223 1824,294.189 1815.12,278.887 1809.02,260.535 1807.09,241.935" style="stroke:rgb(0,0,0);stroke-width:1px;fill:none;stroke-opacity:1;stroke-linecap:round;stroke-linejoin:round;;fill:none"/>
<polyline points="1824.84,242.123 1826.39,256.847 1830.97,270.931 1838.37,283.753 1848.28,294.757 1860.26,303.457 1873.78,309.481 1888.26,312.557 1903.07,312.557 1917.55,309.481 1931.08,303.457 1943.06,294.757 1952.97,283.753 1960.37,270.931 1964.94,256.847 1966.49,242.123 1964.94,227.399 1960.37,213.319 1952.97,200.495 1943.06,189.491 1931.08,180.789 1917.55,174.767 1903.07,171.689 1888.26,171.689 1873.78,174.767 1860.26,180.789 1848.28,189.491 1838.37,200.495 1830.97,213.319 1826.39,227.399 1824.84,242.123" style="stroke:rgb(103,198,105);stroke-width:15.748031;fill:none;stroke-opacity:0.5;stroke-linecap:round;stroke-linejoin:round;;fill:none"/>
<polyline points="1824.84,242.123 1826.39,256.847 1830.97,270.931 1838.37,283.753 1848.28,294.757 1860.26,303.457 1873.78,309.481 1888.26,312.557 1903.07,312.557 1917.55,309.481 1931.08,303.457 1943.06,294.757 1952.97,283.753 1960.37,270.931 1964.94,256.847 1966.49,242.123 1964.94,227.399 1960.37,213.319 1952.97,200.495 1943.06,189.491 1931.08,180.789 1917.55,174.767 1903.07,171.689 1888.26,171.689 1873.78,174.767 1860.26,180.789 1848.28,189.491 1838.37,200.495 1830.97,213.319 1826.39,227.399 1824.84,242.123" style="stroke:rgb(0,0,0);stroke-width:1px;fill:none;stroke-opacity:1;stroke-linecap:round;stroke-linejoin:round;;fill:none"/>
<polyline points="1824.84,1226.38 1826.39,1211.65 1830.97,1197.57 1838.37,1184.75 1848.28,1173.74 1860.26,1165.04 1873.78,1159.02 1888.26,1155.94 1903.07,1155.94 1917.55,1159.02 1931.08,1165.04 1943.06,1173.74 1952.97,1184.75 1960.37,1197.57 1964.94,1211.65 1966.49,1226.38 1964.94,1241.1 1960.37,1255.18 1952.97,1268.01 1943.06,1279.01 1931.08,1287.71 1917.55,1293.73 1903.07,1296.81 1888.26,1296.81 1873.78,1293.73 1860.26,1287.71 1848.28,1279.01 1838.37,1268.01 1830.97,1255.18 1826.39,1241.1 1824.84,1226.38" style="stroke:rgb(103,198,105);stroke-width:15.748031;fill:none;stroke-opacity:0.5;stroke-linecap:round;stroke-linejoin:round;;fill:none"/>
<polyline points="1824.84,1226.38 1826.39,1211.65 1830.97,1197.57 1838.37,1184.75 1848.28,1173.74 1860.26,1165.04 1873.78,1159.02 1888.26,1155.94 1903.07,1155.94 1917.55,1159.02 1931.08,1165.04 1943.06,1173.74 1952.97,1184.75 1960.37,1197.57 1964.94,1211.65 1966.49,1226.38 1964.94,1241.1 1960.37,1255.18 1952.97,1268.01 1943.06,1279.01 1931.08,1287.71 1917.55,1293.73 1903.07,1296.81 1888.26,1296.81 1873.78,1293.73 1860.26,1287.71 1848.28,1279.01 1838.37,1268.01 1830.97,1255.18 1826.39,1241.1 1824.84,1226.38" style="stroke:rgb(0,0,0);stroke-width:1px;fill:none;stroke-opacity:1;stroke-linecap:round;stroke-linejoin:round;;fill:none"/>
<polyline points="1807.09,1226.19 1809.02,1244.79 1815.12,1263.14 1824,1278.44 1835.66,1291.47 1851.37,1303.09 1868.1,1310.55 1887.44,1314.53 1904.93,1314.47 1922.25,1310.84 1939.96,1303.09 1954.94,1292.21 1967.78,1277.75 1976.59,1262.41 1982.1,1245.59 1984.25,1226.38 1982.1,1207.16 1976.59,1190.35 1967.78,1175 1955.09,1160.69 1939.77,1149.57 1922.23,1141.91 1904.71,1138.27 1887.23,1138.24 1868.29,1142.13 1851.38,1149.66 1836.39,1160.55 1823.55,1175 1814.74,1190.35 1809.23,1207.16 1807.09,1226.19 1794.5,1226.17 1796.37,1207.44 1797.26,1203.27 1803.24,1185.23 1812.64,1168.7 1815.16,1165.24 1827.97,1151.19 1845.08,1138.75 1864.4,1130.15 1882.97,1126.09 1887.22,1125.64 1906.01,1125.74 1924.83,1129.59 1928.92,1130.91 1944.15,1137.68 1947.87,1139.83 1963.52,1151.34 1977.53,1166.91 1988.1,1185.23 1994.08,1203.27 1994.97,1207.45 1996.74,1224.24 1996.74,1228.52 1994.64,1247.41 1988.87,1265.53 1987.13,1269.44 1977.52,1285.85 1964.88,1300.05 1961.71,1302.91 1948.06,1312.83 1944.35,1314.97 1926.93,1322.6 1908.36,1326.67 1904.12,1327.11 1885.3,1327.01 1866.28,1323.08 1862.2,1321.76 1846.97,1314.97 1843.25,1312.81 1827.8,1301.4 1815.15,1287.5 1812.64,1284.05 1804.21,1269.44 1802.47,1265.53 1796.7,1247.4 1794.5,1226.17 1781.9,1226.16 1784.38,1202.71 1791.73,1180.1 1803.62,1159.5 1819.54,1141.83 1838.78,1127.84 1860.51,1118.17 1883.76,1113.23 1903.88,1113.03 1910.72,1113.74 1930.79,1118.16 1952.36,1127.75 1971.95,1141.98 1985.55,1156.83 1989.6,1162.41 1999.61,1180.1 2001.74,1186.07 2003.77,1198.92 2004.55,1206.28 2005.41,1222.82 2005.41,1229.93 2004.55,1246.47 2003.77,1253.83 2001.74,1266.69 1999.61,1272.65 1998.04,1275.74 1989.6,1290.35 1985.53,1295.94 1971.8,1310.93 1952.56,1324.91 1930.83,1334.58 1910.98,1338.99 1904.13,1339.71 1887.46,1339.72 1880.56,1339 1860.31,1334.51 1838.74,1324.89 1819.36,1310.75 1805.79,1295.93 1801.74,1290.35 1793.3,1275.74 1790.49,1269.42 1784.37,1250.01 1781.9,1226.16" style="stroke:rgb(103,198,105);stroke-width:15.748031;fill:none;stroke-opacity:0.5;stroke-linecap:round;stroke-linejoin:round;;fill:none"/>
<polyline points="1807.09,1226.19 1809.02,1244.79 1815.12,1263.14 1824,1278.44 1835.66,1291.47 1851.37,1303.09 1868.1,1310.55 1887.44,1314.53 1904.93,1314.47 1922.25,1310.84 1939.96,1303.09 1954.94,1292.21 1967.78,1277.75 1976.59,1262.41 1982.1,1245.59 1984.25,1226.38 1982.1,1207.16 1976.59,1190.35 1967.78,1175 1955.09,1160.69 1939.77,1149.57 1922.23,1141.91 1904.71,1138.27 1887.23,1138.24 1868.29,1142.13 1851.38,1149.66 1836.39,1160.55 1823.55,1175 1814.74,1190.35 1809.23,1207.16 1807.09,1226.19 1794.5,1226.17 1796.37,1207.44 1797.26,1203.27 1803.24,1185.23 1812.64,1168.7 1815.16,1165.24 1827.97,1151.19 1845.08,1138.75 1864.4,1130.15 1882.97,1126.09 1887.22,1125.64 1906.01,1125.74 1924.83,1129.59 1928.92,1130.91 1944.15,1137.68 1947.87,1139.83 1963.52,1151.34 1977.53,1166.91 1988.1,1185.23 1994.08,1203.27 1994.97,1207.45 1996.74,1224.24 1996.74,1228.52 1994.64,1247.41 1988.87,1265.53 1987.13,1269.44 1977.52,1285.85 1964.88,1300.05 1961.71,1302.91 1948.06,1312.83 1944.35,1314.97 1926.93,1322.6 1908.36,1326.67 1904.12,1327.11 1885.3,1327.01 1866.28,1323.08 1862.2,1321.76 1846.97,1314.97 1843.25,1312.81 1827.8,1301.4 1815.15,1287.5 1812.64,1284.05 1804.21,1269.44 1802.47,1265.53 1796.7,1247.4 1794.5,1226.17 1781.9,1226.16 1784.38,1202.71 1791.73,1180.1 1803.62,1159.5 1819.54,1141.83 1838.78,1127.84 1860.51,1118.17 1883.76,1113.23 1903.88,1113.03 1910.72,1113.74 1930.79,1118.16 1952.36,1127.75 1971.95,1141.98 1985.55,1156.83 1989.6,1162.41 1999.61,1180.1 2001.74,1186.07 2003.77,1198.92 2004.55,1206.28 2005.41,1222.82 2005.41,1229.93 2004.55,1246.47 2003.77,1253.83 2001.74,1266.69 1999.61,1272.65 1998.04,1275.74 1989.6,1290.35 1985.53,1295.94 1971.8,1310.93 1952.56,1324.91 1930.83,1334.58 1910.98,1338.99 1904.13,1339.71 1887.46,1339.72 1880.56,1339 1860.31,1334.51 1838.74,1324.89 1819.36,1310.75 1805.79,1295.93 1801.74,1290.35 1793.3,1275.74 1790.49,1269.42 1784.37,1250.01 1781.9,1226.16" style="stroke:rgb(0,0,0);stroke-width:1px;fill:none;stroke-opacity:1;stroke-linecap:round;stroke-linejoin:round;;fill:none"/>
<polyline points="722.439,1572.83 722.439,879.919 1415.35,879.919 1415.35,1572.83 722.439,1572.83" style="stroke:rgb(103,198,105);stroke-width:15.748031;fill:none;stroke-opacity:0.5;stroke-linecap:round;stroke-linejoin:round;;fill:none"/>
<polyline points="722.439,1572.83 722.439,879.919 1415.35,879.919 1415.35,1572.83 722.439,1572.83" style="stroke:rgb(0,0,0);stroke-width:1px;fill:none;stroke-opacity:1;stroke-linecap:round;stroke-linejoin:round;;fill:none"/>
<polyline points="704.721,1580.71 704.721,872.045 705.321,869.031 707.185,865.539 710.159,863.377 713.027,862.353 714.565,862.201 1423.23,862.201 1425.26,862.469 1427.63,863.377 1430.19,865.085 1431.89,867.639 1432.8,870.007 1433.07,872.045 1433.07,1580.71 1432.8,1582.74 1431.89,1585.11 1430.19,1587.67 1427.63,1589.37 1425.26,1590.28 1423.23,1590.55 714.565,1590.55 712.527,1590.28 710.159,1589.37 707.605,1587.67 705.897,1585.11 704.989,1582.74 704.721,1580.71 692.125,1580.71 692.823,1586.01 693.683,1588.54 696.151,1593.47 698.697,1596.57 701.799,1599.12 706.731,1601.59 709.265,1602.45 714.565,1603.15 1423.23,1603.15 1428.53,1602.45 1431.06,1601.59 1435.99,1599.12 1439.09,1596.57 1441.64,1593.47 1444.11,1588.54 1444.97,1586.01 1445.67,1580.71 1445.67,872.045 1444.97,866.745 1444.11,864.211 1441.64,859.279 1439.09,856.177 1435.99,853.631 1431.06,851.163 1428.53,850.303 1423.23,849.605 714.565,849.605 710.571,849.999 706.731,851.163 702.477,853.199 699.877,855.087 697.607,857.357 695.719,859.957 694.261,862.819 692.519,868.051 692.125,872.045 692.125,1580.71 679.529,1580.71 679.813,1585.02 680.657,1589.27 682.623,1594.75 685.679,1600.47 689.791,1605.48 694.801,1609.59 700.519,1612.65 706.005,1614.61 710.249,1615.46 714.565,1615.74 1423.23,1615.74 1427.54,1615.46 1431.79,1614.61 1437.27,1612.65 1442.99,1609.59 1448,1605.48 1452.11,1600.47 1455.17,1594.75 1457.13,1589.27 1457.98,1585.02 1458.26,1580.71 1458.26,872.045 1457.98,867.729 1457.13,863.485 1455.17,857.999 1452.11,852.281 1448,847.271 1442.99,843.159 1437.27,840.103 1431.79,838.137 1427.54,837.293 1423.23,837.009 714.565,837.009 708.113,837.645 701.911,839.527 695.895,842.459 691.697,845.509 688.029,849.177 684.979,853.375 682.623,857.999 680.165,865.593 679.529,872.045 679.529,1580.71" style="stroke:rgb(103,198,105);stroke-width:15.748031;fill:none;stroke-opacity:0.5;stroke-linecap:round;stroke-linejoin:round;;fill:none"/>
<polyline points="704.721,1580.71 704.721,872.045 705.321,869.031 707.185,865.539 710.159,863.377 713.027,862.353 714.565,862.201 1423.23,862.201 1425.26,862.469 1427.63,863.377 1430.19,865.085 1431.89,867.639 1432.8,870.007 1433.07,872.045 1433.07,1580.71 1432.8,1582.74 1431.89,1585.11 1430.19,1587.67 1427.63,1589.37 1425.26,1590.28 1423.23,1590.55 714.565,1590.55 712.527,1590.28 710.159,1589.37 707.605,1587.67 705.897,1585.11 704.989,1582.74 704.721,1580.71 692.125,1580.71 692.823,1586.01 693.683,1588.54 696.151,1593.47 698.697,1596.57 701.799,1599.12 706.731,1601.59 709.265,1602.45 714.565,1603.15 1423.23,1603.15 1428.53,1602.45 1431.06,1601.59 1435.99,1599.12 1439.09,1596.57 1441.64,1593.47 1444.11,1588.54 1444.97,1586.01 1445.67,1580.71 1445.67,872.045 1444.97,866.745 1444.11,864.211 1441.64,859.279 1439.09,856.177 1435.99,853.631 1431.06,851.163 1428.53,850.303 1423.23,849.605 714.565,849.605 710.571,849.999 706.731,851.163 702.477,853.199 699.877,855.087 697.607,857.357 695.719,859.957 694.261,862.819 692.519,868.051 692.125,872.045 692.125,1580.71 679.529,1580.71 679.813,1585.02 680.657,1589.27 682.623,1594.75 685.679,1600.47 689.791,1605.48 694.801,1609.59 700.519,1612.65 706.005,1614.61 710.249,1615.46 714.565,1615.74 1423.23,1615.74 1427.54,1615.46 1431.79,1614.61 1437.27,1612.65 1442.99,1609.59 1448,1605.48 1452.11,1600.47 1455.17,1594.75 1457.13,1589.27 1457.98,1585.02 1458.26,1580.71 1458.26,872.045 1457.98,867.729 1457.13,863.485 1455.17,857.999 1452.11,852.281 1448,847.271 1442.99,843.159 1437.27,840.103 1431.79,838.137 1427.54,837.293 1423.23,837.009 714.565,837.009 708.113,837.645 701.911,839.527 695.895,842.459 691.697,845.509 688.029,849.177 684.979,853.375 682.623,857.999 680.165,865.593 679.529,872.045 679.529,1580.71" style="stroke:rgb(0,0,0);stroke-width:1px;fill:none;stroke-opacity:1;stroke-linecap:round;stroke-linejoin:round;;fill:none"/>
<polyline points="171.301,1226.38 172.849,1241.1 177.423,1255.18 184.827,1268.01 194.733,1279.01 206.713,1287.71 220.239,1293.73 234.721,1296.81 249.527,1296.81 264.009,1293.73 277.535,1287.71 289.515,1279.01 299.421,1268.01 306.823,1255.18 311.399,1241.1 312.947,1226.38 311.399,1211.65 306.823,1197.57 299.421,1184.75 289.515,1173.74 277.535,1165.04 264.009,1159.02 249.527,1155.94 234.721,1155.94 220.239,1159.02 206.713,1165.04 194.733,1173.74 184.827,1184.75 177.423,1197.57 172.849,1211.65 171.301,1226.38" style="stroke:rgb(103,198,105);stroke-width:15.748031;fill:none;stroke-opacity:0.5;stroke-linecap:round;stroke-linejoin:round;;fill:none"/>
<polyline points="171.301,1226.38 172.849,1241.1 177.423,1255.18 184.827,1268.01 194.733,1279.01 206.713,1287.71 220.239,1293.73 234.721,1296.81 249.527,1296.81 264.009,1293.73 277.535,1287.71 289.515,1279.01 299.421,1268.01 306.823,1255.18 311.399,1241.1 312.947,1226.38 311.399,1211.65 306.823,1197.57 299.421,1184.75 289.515,1173.74 277.535,1165.04 264.009,1159.02 249.527,1155.94 234.721,1155.94 220.239,1159.02 206.713,1165.04 194.733,1173.74 184.827,1184.75 177.423,1197.57 172.849,1211.65 171.301,1226.38" style="stroke:rgb(0,0,0);stroke-width:1px;fill:none;stroke-opacity:1;stroke-linecap:round;stroke-linejoin:round;;fill:none"/>
<polyline points="153.549,1226.19 155.475,1244.79 161.573,1263.14 170.457,1278.44 182.119,1291.47 197.129,1302.63 214.555,1310.55 233.073,1314.48 251.385,1314.47 269.497,1310.62 287.107,1302.64 301.397,1292.21 313.271,1279.08 323.047,1262.41 328.771,1244.79 330.707,1226.38 328.557,1207.16 322.673,1189.61 313.791,1174.31 302.131,1161.28 286.229,1149.57 268.687,1141.91 251.167,1138.27 233.683,1138.24 213.981,1142.43 197.141,1150.11 182.849,1160.55 170.977,1173.67 160.903,1191.12 155.477,1207.96 153.549,1226.19 140.953,1226.17 143.157,1205.33 148.923,1187.23 150.665,1183.31 160.269,1166.91 172.905,1152.7 176.087,1149.84 191.535,1138.75 208.859,1130.92 212.927,1129.6 231.541,1125.75 250.341,1125.63 254.573,1126.07 273.365,1130.14 290.607,1137.68 294.327,1139.83 309.977,1151.34 323.983,1166.91 334.555,1185.22 341.091,1205.34 343.303,1226.38 341.427,1245.3 340.537,1249.48 334.555,1267.53 325.147,1284.05 322.631,1287.51 311.341,1300.05 308.161,1302.91 292.713,1314 273.389,1322.6 252.705,1327 231.761,1327.01 210.659,1322.53 193.431,1314.97 189.707,1312.81 175.911,1302.75 172.753,1299.9 160.265,1285.84 150.665,1269.44 148.923,1265.53 143.153,1247.4 140.953,1226.17 132.377,1229.69 133.241,1246.41 134.019,1253.83 136.053,1266.68 138.185,1272.65 150.073,1293.24 163.387,1308.32 168.487,1312.92 185.201,1324.89 203.521,1333.26 210.117,1335.4 227.021,1339 233.915,1339.72 254.027,1339.53 277.283,1334.58 299.011,1324.91 318.255,1310.93 334.169,1293.25 346.061,1272.65 353.413,1250.03 355.899,1226.38 353.413,1202.72 346.061,1180.1 334.177,1159.51 318.409,1141.98 298.817,1127.74 277.243,1118.16 253.769,1113.21 233.667,1113.04 226.811,1113.77 206.965,1118.17 185.239,1127.84 165.993,1141.83 152.255,1156.81 148.195,1162.4 139.757,1177.02 138.185,1180.1 136.053,1186.08 134.019,1198.92 133.245,1206.26 132.381,1222.62 132.377,1229.69" style="stroke:rgb(103,198,105);stroke-width:15.748031;fill:none;stroke-opacity:0.5;stroke-linecap:round;stroke-linejoin:round;;fill:none"/>
<polyline points="153.549,1226.19 155.475,1244.79 161.573,1263.14 170.457,1278.44 182.119,1291.47 197.129,1302.63 214.555,1310.55 233.073,1314.48 251.385,1314.47 269.497,1310.62 287.107,1302.64 301.397,1292.21 313.271,1279.08 323.047,1262.41 328.771,1244.79 330.707,1226.38 328.557,1207.16 322.673,1189.61 313.791,1174.31 302.131,1161.28 286.229,1149.57 268.687,1141.91 251.167,1138.27 233.683,1138.24 213.981,1142.43 197.141,1150.11 182.849,1160.55 170.977,1173.67 160.903,1191.12 155.477,1207.96 153.549,1226.19 140.953,1226.17 143.157,1205.33 148.923,1187.23 150.665,1183.31 160.269,1166.91 172.905,1152.7 176.087,1149.84 191.535,1138.75 208.859,1130.92 212.927,1129.6 231.541,1125.75 250.341,1125.63 254.573,1126.07 273.365,1130.14 290.607,1137.68 294.327,1139.83 309.977,1151.34 323.983,1166.91 334.555,1185.22 341.091,1205.34 343.303,1226.38 341.427,1245.3 340.537,1249.48 334.555,1267.53 325.147,1284.05 322.631,1287.51 311.341,1300.05 308.161,1302.91 292.713,1314 273.389,1322.6 252.705,1327 231.761,1327.01 210.659,1322.53 193.431,1314.97 189.707,1312.81 175.911,1302.75 172.753,1299.9 160.265,1285.84 150.665,1269.44 148.923,1265.53 143.153,1247.4 140.953,1226.17 132.377,1229.69 133.241,1246.41 134.019,1253.83 136.053,1266.68 138.185,1272.65 150.073,1293.24 163.387,1308.32 168.487,1312.92 185.201,1324.89 203.521,1333.26 210.117,1335.4 227.021,1339 233.915,1339.72 254.027,1339.53 277.283,1334.58 299.011,1324.91 318.255,1310.93 334.169,1293.25 346.061,1272.65 353.413,1250.03 355.899,1226.38 353.413,1202.72 346.061,1180.1 334.177,1159.51 318.409,1141.98 298.817,1127.74 277.243,1118.16 253.769,1113.21 233.667,1113.04 226.811,1113.77 206.965,1118.17 185.239,1127.84 165.993,1141.83 152.255,1156.81 148.195,1162.4 139.757,1177.02 138.185,1180.1 136.053,1186.08 134.019,1198.92 133.245,1206.26 132.381,1222.62 132.377,1229.69" style="stroke:rgb(0,0,0);stroke-width:1px;fill:none;stroke-opacity:1;stroke-linecap:round;stroke-linejoin:round;;fill:none"/>
<polyline points="123.615,1935.44 2014.18,1935.44 2017.87,1939.13 2014.18,1935.44 2014.18,1268.65 2016.24,1255.64 2017.09,1247.63 2018.01,1230.1 2018,1222.33 2017.09,1205.12 2016.24,1197.11 2014.18,1184.1 2014.18,284.393 2016.24,271.385 2017.09,263.375 2018.01,245.843 2018,238.075 2017.09,220.871 2016.24,212.857 2014.18,199.851 2014.18,123.615 2017.87,119.927 2014.18,123.615 1938.43,123.615 1929.06,122.097 1911.98,120.319 1903.87,119.873 1887.2,119.905 1879.4,120.289 1862.2,122.105 1852.9,123.615 284.887,123.615 275.511,122.097 258.435,120.319 250.327,119.873 233.661,119.905 225.861,120.289 208.661,122.105 199.359,123.615 123.615,123.615 119.927,119.927 123.615,123.615 123.615,199.831 121.553,212.857 120.685,220.849 119.795,237.873 119.769,245.597 120.685,263.311 121.553,271.385 123.615,284.413 123.615,1184.08 121.553,1197.11 120.685,1205.1 119.795,1222.13 119.769,1229.85 120.685,1247.56 121.553,1255.64 123.615,1268.67 123.615,1935.44 111.019,1948.03 2026.77,1948.03 2030.46,1951.72 2026.77,1948.03 2026.77,111.019 2030.46,107.331 2026.77,111.019 111.019,111.019 107.331,107.331 111.019,111.019 111.019,1948.03 98.4233,1960.63 2039.37,1960.63 2039.37,98.4233 98.4233,98.4233 98.4233,1960.63" style="stroke:rgb(103,198,105);stroke-width:15.748031;fill:none;stroke-opacity:0.5;stroke-linecap:round;stroke-linejoin:round;;fill:none"/>
<polyline points="123.615,1935.44 2014.18,1935.44 2017.87,1939.13 2014.18,1935.44 2014.18,1268.65 2016.24,1255.64 2017.09,1247.63 2018.01,1230.1 2018,1222.33 2017.09,1205.12 2016.24,1197.11 2014.18,1184.1 2014.18,284.393 2016.24,271.385 2017.09,263.375 2018.01,245.843 2018,238.075 2017.09,220.871 2016.24,212.857 2014.18,199.851 2014.18,123.615 2017.87,119.927 2014.18,123.615 1938.43,123.615 1929.06,122.097 1911.98,120.319 1903.87,119.873 1887.2,119.905 1879.4,120.289 1862.2,122.105 1852.9,123.615 284.887,123.615 275.511,122.097 258.435,120.319 250.327,119.873 233.661,119.905 225.861,120.289 208.661,122.105 199.359,123.615 123.615,123.615 119.927,119.927 123.615,123.615 123.615,199.831 121.553,212.857 120.685,220.849 119.795,237.873 119.769,245.597 120.685,263.311 121.553,271.385 123.615,284.413 123.615,1184.08 121.553,1197.11 120.685,1205.1 119.795,1222.13 119.769,1229.85 120.685,1247.56 121.553,1255.64 123.615,1268.67 123.615,1935.44 111.019,1948.03 2026.77,1948.03 2030.46,1951.72 2026.77,1948.03 2026.77,111.019 2030.46,107.331 2026.77,111.019 111.019,111.019 107.331,107.331 111.019,111.019 111.019,1948.03 98.4233,1960.63 2039.37,1960.63 2039.37,98.4233 98.4233,98.4233 98.4233,1960.63" style="stroke:rgb(0,0,0);stroke-width:1px;fill:none;stroke-opacity:1;stroke-linecap:round;stroke-linejoin:round;;fill:none"/>
<polyline points="76.7693,1974.41 76.7693,84.6453 77.3693,81.6313 79.0773,79.0773 81.6313,77.3693 84.6453,76.7693 2053.15,76.7693 2056.16,77.3693 2058.72,79.0773 2060.42,81.6313 2061.02,84.6453 2061.02,1974.41 2060.42,1977.42 2058.72,1979.98 2056.16,1981.68 2053.15,1982.28 84.6453,1982.28 81.6313,1981.68 79.0773,1979.98 77.3693,1977.42 76.7693,1974.41" style="stroke:rgb(103,198,105);stroke-width:15.748031;fill:none;stroke-opacity:0.5;stroke-linecap:round;stroke-linejoin:round;;fill:none"/>
<polyline points="76.7693,1974.41 76.7693,84.6453 77.3693,81.6313 79.0773,79.0773 81.6313,77.3693 84.6453,76.7693 2053.15,76.7693 2056.16,77.3693 2058.72,79.0773 2060.42,81.6313 2061.02,84.6453 2061.02,1974.41 2060.42,1977.42 2058.72,1979.98 2056.16,1981.68 2053.15,1982.28 84.6453,1982.28 81.6313,1981.68 79.0773,1979.98 77.3693,1977.42 76.7693,1974.41" style="stroke:rgb(0,0,0);stroke-width:1px;fill:none;stroke-opacity:1;stroke-linecap:round;stroke-linejoin:round;;fill:none"/>
</svg>
