<?xml version="1.0" standalone="no"?>
<!DOCTYPE svg PUBLIC "-//W3C//DTD SVG 1.1//EN"
"http://www.w3.org/Graphics/SVG/1.1/DTD/svg11.dtd">
<svg width="102.614" height="98.8346" viewBox="0 0 2137.8 2059.06" version="1.1"
xmlns="http://www.w3.org/2000/svg"
xmlns:xlink="http://www.w3.org/1999/xlink">
<polyline points="45.2733,1974.41 46.0313,1982.09 48.2713,1989.48 51.9093,1996.28 56.8053,2002.25 62.7713,2007.14 69.5773,2010.78 76.9633,2013.02 84.6453,2013.78 2053.15,2013.78 2060.83,2013.02 2068.22,2010.78 2075.02,2007.14 2080.99,2002.25 2085.88,1996.28 2089.52,1989.48 2091.76,1982.09 2092.52,1974.41 2092.52,84.6453 2091.76,76.9633 2089.52,69.5773 2085.88,62.7713 2080.99,56.8053 2075.02,51.9093 2068.22,48.2713 2060.83,46.0313 2053.15,45.2733 84.6453,45.2733 76.9633,46.0313 69.5773,48.2713 62.7713,51.9093 56.8053,56.8053 51.9093,62.7713 48.2713,69.5773 46.0313,76.9633 45.2733,84.6453 45.2733,1974.41" style="stroke:rgb(103,198,105);stroke-width:78.740157;fill:none;stroke-opacity:0.5;stroke-linecap:round;stroke-linejoin:round;;fill:none"/>
<polyline points="45.2733,1974.41 46.0313,1982.09 48.2713,1989.48 51.9093,1996.28 56.8053,2002.25 62.7713,2007.14 69.5773,2010.78 76.9633,2013.02 84.6453,2013.78 2053.15,2013.78 2060.83,2013.02 2068.22,2010.78 2075.02,2007.14 2080.99,2002.25 2085.88,1996.28 2089.52,1989.48 2091.76,1982.09 2092.52,1974.41 2092.52,84.6453 2091.76,76.9633 2089.52,69.5773 2085.88,62.7713 2080.99,56.8053 2075.02,51.9093 2068.22,48.2713 2060.83,46.0313 2053.15,45.2733 84.6453,45.2733 76.9633,46.0313 69.5773,48.2713 62.7713,51.9093 56.8053,56.8053 51.9093,62.7713 48.2713,69.5773 46.0313,76.9633 45.2733,84.6453 45.2733,1974.41" style="stroke:rgb(0,0,0);stroke-width:1px;fill:none;stroke-opacity:1;stroke-linecap:round;stroke-linejoin:round;;fill:none"/>
<polyline points="753.935,1541.34 753.935,911.415 1383.86,911.415 1383.86,1541.34 753.935,1541.34" style="stroke:rgb(103,198,105);stroke-width:78.740157;fill:none;stroke-opacity:0.5;stroke-linecap:round;stroke-linejoin:round;;fill:none"/>
<polyline points="753.935,1541.34 753.935,911.415 1383.86,911.415 1383.86,1541.34 753.935,1541.34" style="stroke:rgb(0,0,0);stroke-width:1px;fill:none;stroke-opacity:1;stroke-linecap:round;stroke-linejoin:round;;fill:none"/>
<polyline points="202.971,1226.38 203.827,1218.23 206.355,1210.45 210.449,1203.36 215.925,1197.28 222.547,1192.47 230.025,1189.14 238.035,1187.44 246.213,1187.44 254.223,1189.14 261.701,1192.47 268.323,1197.28 273.799,1203.36 277.893,1210.45 280.423,1218.24 281.277,1226.38 280.423,1234.52 277.891,1242.3 273.799,1249.39 268.323,1255.47 261.701,1260.28 254.223,1263.61 246.217,1265.31 238.031,1265.31 230.025,1263.61 222.549,1260.28 215.925,1255.47 210.447,1249.39 206.355,1242.3 203.827,1234.52 202.971,1226.38" style="stroke:rgb(103,198,105);stroke-width:78.740157;fill:none;stroke-opacity:0.5;stroke-linecap:round;stroke-linejoin:round;;fill:none"/>
<polyline points="202.971,1226.38 203.827,1218.23 206.355,1210.45 210.449,1203.36 215.925,1197.28 222.547,1192.47 230.025,1189.14 238.035,1187.44 246.213,1187.44 254.223,1189.14 261.701,1192.47 268.323,1197.28 273.799,1203.36 277.893,1210.45 280.423,1218.24 281.277,1226.38 280.423,1234.52 277.891,1242.3 273.799,1249.39 268.323,1255.47 261.701,1260.28 254.223,1263.61 246.217,1265.31 238.031,1265.31 230.025,1263.61 222.549,1260.28 215.925,1255.47 210.447,1249.39 206.355,1242.3 203.827,1234.52 202.971,1226.38" style="stroke:rgb(0,0,0);stroke-width:1px;fill:none;stroke-opacity:1;stroke-linecap:round;stroke-linejoin:round;;fill:none"/>
<polyline points="202.971,242.123 203.827,233.981 206.355,226.201 210.449,219.111 215.927,213.025 222.545,208.217 230.025,204.887 238.035,203.185 246.213,203.185 254.223,204.887 261.701,208.217 268.321,213.025 273.799,219.109 277.893,226.201 280.423,233.983 281.277,242.125 280.423,250.263 277.891,258.049 273.799,265.139 268.323,271.221 261.701,276.031 254.223,279.361 246.217,281.061 238.031,281.061 230.025,279.361 222.547,276.031 215.925,271.221 210.449,265.137 206.355,258.049 203.827,250.265 202.971,242.123" style="stroke:rgb(103,198,105);stroke-width:78.740157;fill:none;stroke-opacity:0.5;stroke-linecap:round;stroke-linejoin:round;;fill:none"/>
<polyline points="202.971,242.123 203.827,233.981 206.355,226.201 210.449,219.111 215.927,213.025 222.545,208.217 230.025,204.887 238.035,203.185 246.213,203.185 254.223,204.887 261.701,208.217 268.321,213.025 273.799,219.109 277.893,226.201 280.423,233.983 281.277,242.125 280.423,250.263 277.891,258.049 273.799,265.139 268.323,271.221 261.701,276.031 254.223,279.361 246.217,281.061 238.031,281.061 230.025,279.361 222.547,276.031 215.925,271.221 210.449,265.137 206.355,258.049 203.827,250.265 202.971,242.123" style="stroke:rgb(0,0,0);stroke-width:1px;fill:none;stroke-opacity:1;stroke-linecap:round;stroke-linejoin:round;;fill:none"/>
<polyline points="1856.51,1226.38 1857.37,1218.24 1859.9,1210.45 1863.99,1203.36 1869.47,1197.28 1876.09,1192.47 1883.57,1189.14 1891.58,1187.44 1899.76,1187.44 1907.77,1189.14 1915.25,1192.47 1921.87,1197.28 1927.34,1203.36 1931.44,1210.45 1933.97,1218.24 1934.82,1226.38 1933.97,1234.52 1931.44,1242.3 1927.35,1249.39 1921.87,1255.47 1915.24,1260.28 1907.77,1263.61 1899.76,1265.31 1891.57,1265.31 1883.57,1263.61 1876.09,1260.28 1869.47,1255.47 1863.99,1249.39 1859.9,1242.3 1857.37,1234.52 1856.51,1226.38" style="stroke:rgb(103,198,105);stroke-width:78.740157;fill:none;stroke-opacity:0.5;stroke-linecap:round;stroke-linejoin:round;;fill:none"/>
<polyline points="1856.51,1226.38 1857.37,1218.24 1859.9,1210.45 1863.99,1203.36 1869.47,1197.28 1876.09,1192.47 1883.57,1189.14 1891.58,1187.44 1899.76,1187.44 1907.77,1189.14 1915.25,1192.47 1921.87,1197.28 1927.34,1203.36 1931.44,1210.45 1933.97,1218.24 1934.82,1226.38 1933.97,1234.52 1931.44,1242.3 1927.35,1249.39 1921.87,1255.47 1915.24,1260.28 1907.77,1263.61 1899.76,1265.31 1891.57,1265.31 1883.57,1263.61 1876.09,1260.28 1869.47,1255.47 1863.99,1249.39 1859.9,1242.3 1857.37,1234.52 1856.51,1226.38" style="stroke:rgb(0,0,0);stroke-width:1px;fill:none;stroke-opacity:1;stroke-linecap:round;stroke-linejoin:round;;fill:none"/>
<polyline points="1856.51,242.123 1857.37,233.983 1859.9,226.199 1863.99,219.111 1869.47,213.025 1876.09,208.215 1883.57,204.887 1891.58,203.185 1899.76,203.185 1907.77,204.887 1915.25,208.215 1921.87,213.027 1927.34,219.111 1931.44,226.199 1933.97,233.983 1934.82,242.123 1933.97,250.263 1931.44,258.051 1927.34,265.137 1921.87,271.221 1915.25,276.031 1907.77,279.361 1899.76,281.061 1891.57,281.061 1883.57,279.361 1876.09,276.031 1869.47,271.221 1863.99,265.137 1859.9,258.049 1857.37,250.263 1856.51,242.123" style="stroke:rgb(103,198,105);stroke-width:78.740157;fill:none;stroke-opacity:0.5;stroke-linecap:round;stroke-linejoin:round;;fill:none"/>
<polyline points="1856.51,242.123 1857.37,233.983 1859.9,226.199 1863.99,219.111 1869.47,213.025 1876.09,208.215 1883.57,204.887 1891.58,203.185 1899.76,203.185 1907.77,204.887 1915.25,208.215 1921.87,213.027 1927.34,219.111 1931.44,226.199 1933.97,233.983 1934.82,242.123 1933.97,250.263 1931.44,258.051 1927.34,265.137 1921.87,271.221 1915.25,276.031 1907.77,279.361 1899.76,281.061 1891.57,281.061 1883.57,279.361 1876.09,276.031 1869.47,271.221 1863.99,265.137 1859.9,258.049 1857.37,250.263 1856.51,242.123" style="stroke:rgb(0,0,0);stroke-width:1px;fill:none;stroke-opacity:1;stroke-linecap:round;stroke-linejoin:round;;fill:none"/>
</svg>
